<svg width="200" height="50" viewBox="0 0 200 50" fill="none" xmlns="http://www.w3.org/2000/svg">
<g id="allianz-logo 1" clip-path="url(#clip0_159_95)">
<path id="Vector" d="M18.2259 26.2566H11.3968L15.034 14.3894L18.2259 26.2566ZM7.85471 39.3344L10.1861 31.5197H19.3866L21.5679 39.3144H30.073L21.623 9.59657C21.1227 7.84052 20.072 7.03003 18.2259 7.03003H6.1637V9.83671H7.1643C8.42505 9.83671 9.10546 10.337 9.10546 11.2926C9.10546 11.928 8.96538 12.4583 8.46508 13.9042L0 39.3344H7.85471Z" fill="#003781"/>
<path id="Vector_2" d="M39.9139 39.3344V9.50652C39.9139 7.95058 39.0034 7.03003 37.4975 7.03003H30.018V9.83671H30.5183C31.7741 9.83671 32.3094 10.372 32.3094 11.6428V39.3344H39.9139Z" fill="#003781"/>
<path id="Vector_3" d="M52.8417 39.3344V9.50652C52.8417 7.95058 51.9161 7.03003 50.4202 7.03003H42.9658V9.83671H43.4661C44.7268 9.83671 45.2621 10.372 45.2621 11.6428V39.3344H52.8417Z" fill="#003781"/>
<path id="Vector_4" d="M66.1047 9.97683C66.1047 7.81053 64.4987 6.47473 61.747 6.47473C58.9954 6.47473 57.3794 7.78552 57.3794 9.97683C57.3794 12.1681 59.0354 13.4789 61.747 13.4789C64.4587 13.4789 66.1047 12.1782 66.1047 9.97683ZM65.9596 39.3344V17.5914C65.9596 16.0405 65.039 15.1249 63.5331 15.1249H56.1737V17.8766H56.609C57.8647 17.8766 58.4 18.4569 58.4 19.7177V39.3344H65.9596Z" fill="#003781"/>
<path id="Vector_5" d="M82.6095 27.7074V32.4152C81.3438 33.721 79.8029 34.5215 78.4971 34.5215C77.1913 34.5215 76.656 33.8511 76.656 32.02C76.656 30.1889 77.0362 29.4134 78.397 28.8881C79.752 28.3365 81.1652 27.9404 82.6095 27.7074ZM72.3834 22.054C74.7074 20.9011 77.2503 20.2564 79.8429 20.1629C81.8841 20.1629 82.6095 20.8883 82.6095 23.0046V23.5449C79.5127 24.0452 78.5421 24.2353 76.7961 24.6206C75.8181 24.836 74.8606 25.1356 73.9343 25.5161C70.8775 26.7418 69.4316 29.1033 69.4316 32.7304C69.4316 37.3332 71.4328 39.5545 75.5303 39.5545C76.9241 39.5602 78.3062 39.3005 79.6027 38.7891C80.7788 38.2538 81.8722 37.5529 82.8497 36.7078V37.048C82.8497 38.5489 83.6202 39.3144 85.1261 39.3144H92.0552V36.7278H91.715C90.4092 36.7278 89.9289 36.1425 89.9289 34.5966V23.0646C89.9289 16.9159 87.7927 14.7747 81.634 14.7747C79.6815 14.7844 77.7364 15.0143 75.8355 15.4601C74.0395 15.8606 72.3095 16.5142 70.6974 17.4012L72.3834 22.054Z" fill="#003781"/>
<path id="Vector_6" d="M103.087 39.3344V22.9646C104.353 21.5588 105.653 20.9234 107.154 20.9234C108.76 20.9234 109.155 21.5588 109.155 23.9952V39.3344H116.71V22.8745C116.71 19.0422 116.435 17.8315 115.209 16.5307C114.209 15.4051 112.643 14.8347 110.646 14.8347C107.69 14.8347 105.608 15.7503 102.812 18.3668V17.4013C102.812 15.9004 102.026 15.1249 100.48 15.1249H93.301V17.8765H93.7362C94.992 17.8765 95.5323 18.4569 95.5323 19.7176V39.3344H103.087Z" fill="#003781"/>
<path id="Vector_7" d="M139.118 34.2514H128.577L138.658 20.1179V15.1149H122.849C121.058 15.1149 120.232 15.9354 120.232 17.7314V22.1341H123.039V21.7038C123.039 20.5882 123.619 20.0578 124.825 20.0578H130.258L120.072 34.3514V39.3544H139.083L139.118 34.2514Z" fill="#003781"/>
<path id="Vector_8" d="M178.777 38.7191V11.3477C178.777 9.16635 178.002 8.43091 175.886 8.43091H169.477V11.5078H169.862C171.323 11.5078 171.608 11.838 171.608 13.599V38.7191H178.777ZM181.939 38.7191H189.053V17.4013C189.053 15.26 188.228 14.4895 186.142 14.4895H181.939V38.7191ZM168.466 38.7191V14.5096H164.249C162.162 14.5096 161.347 15.28 161.347 17.4213V38.7191H168.466ZM195.787 24.8057C195.787 36.868 187.112 45.6382 175.2 45.6382C163.288 45.6382 154.593 36.868 154.593 24.8057C154.593 12.7435 163.283 3.97324 175.2 3.97324C187.117 3.97324 195.787 12.7935 195.787 24.8057ZM200 24.8057C200 10.6222 189.389 0.000854492 175.2 0.000854492C161.012 0.000854492 150.39 10.6222 150.39 24.8057C150.39 38.9892 161.002 49.6056 175.2 49.6056C189.399 49.6056 200 39.0243 200 24.8057Z" fill="#003781"/>
</g>
<defs>
<clipPath id="clip0_159_95">
<rect width="200" height="49.6065" fill="white"/>
</clipPath>
</defs>
</svg>
