<svg width="270" height="80" viewBox="0 0 270 80" fill="none" xmlns="http://www.w3.org/2000/svg">
<mask id="mask0_328_25" style="mask-type:luminance" maskUnits="userSpaceOnUse" x="0" y="0" width="270" height="80">
<path d="M269.193 0H0.0966797V80H269.193V0Z" fill="white"/>
</mask>
<g mask="url(#mask0_328_25)">
<path d="M269.193 72.0586C269.193 76.4849 265.744 80 261.512 80H7.77772C3.54664 80 0.0966797 76.4198 0.0966797 72.0586V7.94141C0.0966797 3.51505 3.54664 0 7.77772 0H261.512C265.744 0 269.193 3.58014 269.193 7.94141V72.0586Z" fill="#010202"/>
<path d="M54.515 41.2042C54.515 34.8251 59.7225 31.6355 60.113 31.3751C57.1187 26.9487 52.3669 26.3629 50.7396 26.3629C46.7689 25.9723 42.9934 28.7713 40.9755 28.7713C38.9576 28.7713 35.768 26.3629 32.5785 26.5582C28.4125 26.5582 24.3767 29.1619 22.2286 32.9373C17.672 40.7486 21.0569 52.3352 25.4182 58.7144C27.6314 61.904 30.17 65.2889 33.3596 65.0936C36.5492 64.8983 37.7208 63.0757 41.7566 63.0757C45.5321 63.0757 46.7689 65.0936 50.1537 65.0936C53.5386 65.0936 55.7518 61.904 57.8999 58.9097C60.5036 55.3295 61.48 51.8796 61.48 51.6843C61.2847 51.3588 54.7103 48.8202 54.515 41.2042Z" fill="white"/>
<path d="M48.1354 22.1969C49.958 19.9837 51.1297 16.9894 50.7391 13.9951C48.1354 14.1904 45.1411 15.8177 43.1883 17.7705C41.6261 19.5932 40.194 22.7827 40.5846 25.5818C43.5789 25.9723 46.3779 24.4101 48.1354 22.1969Z" fill="white"/>
<path d="M102.164 63.0106H97.607L95.1985 55.1993H86.6062L84.1977 63.0106H79.8364L88.4288 36.3873H93.6363L102.164 63.0106ZM94.6127 52.0098L92.3995 44.9796C92.2042 44.1985 91.8136 42.5712 91.0325 39.9675C90.8372 41.1391 90.4467 42.7665 89.8608 44.9796L87.4524 52.0098H94.6127Z" fill="white"/>
<path d="M124.295 53.1814C124.295 56.371 123.514 58.9748 121.692 60.9927C120.129 62.62 118.111 63.5964 115.898 63.5964C113.295 63.5964 111.537 62.62 110.496 60.7974V71.0171H106.33V50.1871C106.33 48.1692 106.33 45.9561 106.134 43.808H109.91L110.105 46.8023C111.472 44.5891 113.685 43.4174 116.484 43.4174C118.697 43.4174 120.65 44.1985 122.082 46.0211C123.514 47.7787 124.295 50.1871 124.295 53.1814ZM119.934 53.3767C119.934 51.5541 119.544 49.9919 118.762 48.7551C117.786 47.5834 116.549 46.9325 114.987 46.9325C114.011 46.9325 112.969 47.323 112.188 47.9089C111.407 48.69 110.821 49.5362 110.626 50.7079C110.43 51.2937 110.43 51.6843 110.43 51.8796V55.0691C110.43 56.5012 110.821 57.6729 111.602 58.6493C112.383 59.6257 113.62 60.0814 114.987 60.0814C116.549 60.0814 117.786 59.4955 118.762 58.2587C119.544 57.022 119.934 55.3946 119.934 53.3767Z" fill="white"/>
<path d="M146.231 53.1814C146.231 56.371 145.45 58.9748 143.628 60.9927C142.065 62.62 140.048 63.5964 137.834 63.5964C135.231 63.5964 133.473 62.62 132.432 60.7974V71.0171H128.266V50.1871C128.266 48.1692 128.266 45.9561 128.07 43.808H131.846L132.041 46.8023C133.408 44.5891 135.621 43.4174 138.42 43.4174C140.633 43.4174 142.586 44.1985 144.018 46.0211C145.45 47.7787 146.231 50.1871 146.231 53.1814ZM141.805 53.3767C141.805 51.5541 141.414 49.9919 140.633 48.7551C139.657 47.5834 138.42 46.9325 136.858 46.9325C135.882 46.9325 134.84 47.323 134.059 47.9089C133.278 48.69 132.692 49.5362 132.497 50.7079C132.301 51.2937 132.301 51.6843 132.301 51.8796V55.0691C132.301 56.5012 132.692 57.6729 133.473 58.6493C134.254 59.6257 135.491 60.0814 136.858 60.0814C138.42 60.0814 139.657 59.4955 140.633 58.2587C141.414 57.022 141.805 55.3946 141.805 53.3767Z" fill="white"/>
<path d="M170.707 55.5899C170.707 57.8031 169.926 59.821 168.298 61.188C166.476 62.8153 164.132 63.5964 161.138 63.5964C158.339 63.5964 155.93 63.0106 154.368 61.9691L155.345 58.3889C157.167 59.5606 159.315 60.2116 161.528 60.2116C163.091 60.2116 164.327 59.821 165.304 59.2352C166.085 58.454 166.671 57.6078 166.671 56.2408C166.671 55.2644 166.28 54.2229 165.499 53.4418C164.718 52.6607 163.481 52.0098 161.919 51.4239C157.362 49.6013 154.954 47.1928 154.954 43.808C154.954 41.5948 155.735 39.8373 157.362 38.4052C158.925 36.9732 161.138 36.3873 163.937 36.3873C166.345 36.3873 168.298 36.7779 169.926 37.559L168.754 40.7486C167.192 39.9674 165.564 39.5769 163.742 39.5769C162.179 39.5769 161.138 39.9674 160.161 40.7486C159.38 41.3344 159.185 42.1806 159.185 43.157C159.185 44.1334 159.576 45.1749 160.357 45.7608C161.138 46.3466 162.375 47.1928 164.132 47.7787C166.345 48.7551 168.103 49.7966 169.144 50.9683C170.316 52.205 170.707 53.7673 170.707 55.5899Z" fill="white"/>
<path d="M184.897 46.9976H180.341V56.371C180.341 58.7795 181.122 59.9512 182.749 59.9512C183.53 59.9512 184.116 59.9512 184.572 59.7559L184.767 62.9455C183.986 63.336 182.749 63.336 181.382 63.336C179.82 63.336 178.388 62.7502 177.412 61.7087C176.435 60.7323 176.045 58.9097 176.045 56.5012V46.9325H173.246V43.808H176.045V40.2278L180.211 39.0562V43.8731H184.767C184.897 43.808 184.897 46.9976 184.897 46.9976Z" fill="white"/>
<path d="M206.053 53.1814C206.053 56.1757 205.271 58.5842 203.449 60.4068C201.626 62.4247 199.283 63.4011 196.484 63.4011C193.685 63.4011 191.472 62.4247 189.714 60.6021C187.891 58.7795 187.11 56.371 187.11 53.572C187.11 50.5777 187.891 48.1692 189.714 46.1513C191.537 44.3287 193.685 43.3523 196.679 43.3523C199.478 43.3523 201.691 44.3287 203.449 46.1513C205.206 47.974 206.053 50.3824 206.053 53.1814ZM201.626 53.3767C201.626 51.5541 201.236 50.1871 200.455 48.7551C199.673 47.1277 198.241 46.5419 196.679 46.5419C194.856 46.5419 193.685 47.323 192.708 48.7551C191.927 49.9268 191.537 51.5541 191.537 53.3767C191.537 55.1994 191.927 56.5663 192.708 57.9984C193.685 59.6257 194.922 60.2116 196.484 60.2116C198.046 60.2116 199.478 59.4304 200.259 57.8031C201.236 56.5663 201.626 55.1994 201.626 53.3767Z" fill="white"/>
<path d="M219.788 47.5834C219.397 47.5834 219.007 47.3881 218.421 47.3881C216.859 47.3881 215.817 47.974 215.036 49.2107C214.255 50.1871 214.06 51.4239 214.06 52.9862V63.0106H209.894V49.7966C209.894 47.5834 209.894 45.5655 209.698 43.808H213.474L213.669 47.3881H213.864C214.255 46.2164 215.036 45.1749 216.077 44.3938C217.054 43.808 218.095 43.4174 219.072 43.4174C219.462 43.4174 219.853 43.4174 220.048 43.4174C219.788 43.6127 219.788 47.5834 219.788 47.5834Z" fill="white"/>
<path d="M238.925 52.5956C238.925 53.3767 238.925 54.0277 238.73 54.6135H225.972C225.972 56.4361 226.558 57.9984 227.794 59.0399C228.771 59.821 230.203 60.4719 231.96 60.4719C233.783 60.4719 235.54 60.0814 237.168 59.4955L237.754 62.4898C235.931 63.271 233.783 63.6615 231.374 63.6615C228.38 63.6615 225.972 62.8804 224.409 61.0578C222.847 59.2351 221.806 57.0871 221.806 54.0277C221.806 51.2286 222.587 48.6249 224.214 46.8023C225.776 44.7844 227.99 43.808 230.984 43.808C233.783 43.808 235.736 44.7844 237.168 46.8023C238.339 47.974 238.925 50.1871 238.925 52.5956ZM234.694 51.4239C234.694 50.2522 234.499 49.0154 233.913 48.2343C233.132 47.0626 232.09 46.4117 230.528 46.4117C229.161 46.4117 227.924 46.9975 227.143 48.2343C226.362 49.2107 225.972 50.2522 225.972 51.6192L234.694 51.4239Z" fill="white"/>
<path d="M83.8071 12.8234C84.5883 12.6282 86.0203 12.4329 87.192 12.4329C89.0146 12.4329 90.1863 12.8234 91.1627 13.4093C91.9438 13.9951 92.3344 14.8413 92.3344 16.013C92.3344 17.4451 91.358 18.6168 89.9259 19.2026C91.2929 19.5932 92.9202 20.6347 92.9202 22.7828C92.9202 23.9544 92.5297 24.9959 91.7485 25.5818C90.7721 26.5582 89.1448 27.0138 86.7363 27.0138C85.5647 27.0138 84.5232 27.0138 83.9373 26.8186L83.8071 12.8234ZM85.6298 18.8121H87.192C89.2099 18.8121 90.3816 17.8356 90.3816 16.4036C90.3816 14.7762 89.2099 13.9951 87.192 13.9951C86.4109 13.9951 85.825 13.9951 85.6298 14.1904V18.8121ZM85.6298 25.777C86.0203 25.777 86.6062 25.777 87.192 25.777C89.2099 25.777 90.9674 24.9959 90.9674 22.978C90.9674 20.9601 89.4052 20.179 87.192 20.179H85.6298V25.777Z" fill="white"/>
<path d="M100.991 27.2091L100.796 25.777C100.21 26.5582 99.2339 27.4044 97.6066 27.4044C95.3934 27.4044 94.417 25.9723 94.417 24.4101C94.417 21.8063 96.6302 20.6347 100.601 20.6347V20.3743C100.601 19.5932 100.406 17.9658 98.1924 17.9658C97.216 17.9658 96.1745 18.3564 95.3934 18.7469L95.0028 17.5753C95.784 16.9894 97.216 16.5989 98.3877 16.5989C101.577 16.5989 102.358 18.812 102.358 20.8299V24.6054C102.358 25.5818 102.358 26.428 102.554 27.0138H100.991V27.2091ZM100.796 21.8063C98.7783 21.8063 96.4349 22.1969 96.4349 24.2148C96.4349 25.3865 97.216 26.0374 98.2575 26.0374C99.6245 26.0374 100.471 25.2563 100.861 24.2148C100.861 24.0195 101.057 23.8242 101.057 23.629L100.796 21.8063Z" fill="white"/>
<path d="M107.761 13.7998C107.761 14.3857 107.371 14.9715 106.59 14.9715C106.004 14.9715 105.418 14.3857 105.418 13.7998C105.418 13.214 105.809 12.6282 106.59 12.6282C107.175 12.5631 107.761 13.214 107.761 13.7998ZM105.548 27.2091V16.7941H107.566V27.2091H105.548Z" fill="white"/>
<path d="M111.537 16.7941L112.904 19.0073C113.294 19.5932 113.685 20.179 113.88 20.6347C114.271 20.0488 114.466 19.463 114.857 18.812L116.224 16.5989H118.241L114.661 21.6111L118.241 27.0138H116.028L114.466 24.6054C114.075 24.0195 113.685 23.4337 113.294 22.7828C112.904 23.3686 112.513 23.9544 112.318 24.6054L110.756 27.0138H108.738L112.318 21.8063L108.738 16.7941H111.537Z" fill="white"/>
<path d="M126.313 27.2091L126.117 25.777C125.532 26.5582 124.555 27.4044 122.928 27.4044C120.715 27.4044 119.738 25.9723 119.738 24.4101C119.738 21.8063 121.951 20.6347 125.922 20.6347V20.3743C125.922 19.3979 125.727 17.9658 123.514 17.9658C122.537 17.9658 121.496 18.3564 120.715 18.7469L120.324 17.5753C121.105 16.9894 122.537 16.5989 123.709 16.5989C126.899 16.5989 127.68 18.812 127.68 20.8299V24.6054C127.68 25.5818 127.68 26.428 127.875 27.0138H126.313V27.2091ZM125.857 21.8063C123.839 21.8063 121.496 22.1969 121.496 24.2148C121.496 25.3865 122.277 26.0374 123.318 26.0374C124.685 26.0374 125.532 25.2563 125.922 24.2148C125.922 24.0195 126.117 23.8242 126.117 23.629V21.8063H125.857Z" fill="white"/>
<path d="M130.869 19.9837C130.869 18.812 130.869 17.7705 130.869 16.7941H132.432V18.812C132.822 17.38 133.994 16.5989 135.231 16.5989C135.426 16.5989 135.621 16.5989 135.816 16.5989V18.4215C135.621 18.4215 135.426 18.4215 135.231 18.4215C133.864 18.4215 133.017 19.3979 132.627 20.8299C132.627 21.0252 132.627 21.4158 132.627 21.6111V27.2091H130.804V19.9837H130.869Z" fill="white"/>
<path d="M142.456 19.5932C142.456 18.6167 142.456 17.5753 142.456 16.7941H144.018L144.213 18.6167C144.799 17.6403 146.036 16.5989 147.598 16.5989C148.965 16.5989 151.178 17.38 151.178 21.0252V27.2091H149.356V21.2205C149.356 19.5932 148.77 18.2262 146.947 18.2262C145.776 18.2262 144.734 19.0073 144.344 20.2441C144.344 20.4394 144.148 20.8299 144.148 21.0252V27.2091H142.326V19.5932H142.456Z" fill="white"/>
<path d="M159.967 27.2091L159.771 25.777C159.185 26.5582 158.209 27.4044 156.582 27.4044C154.368 27.4044 153.392 25.9723 153.392 24.4101C153.392 21.8063 155.605 20.6347 159.576 20.6347V20.3743C159.576 19.3979 159.381 17.9658 157.168 17.9658C156.191 17.9658 155.15 18.3564 154.368 18.7469L153.978 17.5753C154.759 16.9894 156.191 16.5989 157.363 16.5989C160.552 16.5989 161.334 18.812 161.334 20.8299V24.6054C161.334 25.5818 161.334 26.428 161.529 27.0138H159.967V27.2091ZM159.576 21.8063C157.558 21.8063 155.215 22.1969 155.215 24.2148C155.215 25.3865 155.996 26.0374 157.037 26.0374C158.404 26.0374 159.251 25.2563 159.641 24.2148C159.641 24.0195 159.836 23.8242 159.836 23.629V21.8063H159.576Z" fill="white"/>
</g>
</svg>
