<svg width="200" height="125" viewBox="0 0 200 125" fill="none" xmlns="http://www.w3.org/2000/svg">
<g id="azul-seguros 1">
<g id="Group">
<path id="Vector" d="M60.8508 113.388L62.5195 110.169C64.084 111.227 66.5574 111.972 68.7924 111.972C71.5041 111.972 72.5918 111.227 72.5918 109.975C72.5918 106.519 61.3872 109.767 61.3872 102.54C61.3872 99.1135 64.4714 96.8785 69.3586 96.8785C71.7723 96.8785 74.5139 97.4596 76.1529 98.443L74.5288 101.661C72.8302 100.648 71.072 100.305 69.3735 100.305C66.766 100.305 65.5442 101.155 65.5442 102.347C65.5442 106.012 76.7489 102.749 76.7489 109.841C76.7489 113.239 73.6199 115.444 68.5689 115.444C65.4995 115.429 62.4748 114.55 60.8508 113.388Z" fill="#061EFF"/>
<path id="Vector_2" d="M97.8768 107.487H83.6474C84.154 110.139 86.3592 111.838 89.518 111.838C91.5592 111.838 93.1535 111.197 94.4349 109.871L96.7146 112.479C95.0905 114.416 92.5426 115.429 89.4137 115.429C83.3345 115.429 79.401 111.525 79.401 106.131C79.401 100.738 83.3792 96.8636 88.773 96.8636C94.0624 96.8636 97.9363 100.559 97.9363 106.236C97.9512 106.563 97.9215 107.07 97.8768 107.487ZM83.6325 104.671H93.9134C93.5707 102.064 91.5741 100.261 88.7879 100.261C86.0314 100.261 84.0348 102.019 83.6325 104.671Z" fill="#061EFF"/>
<path id="Vector_3" d="M116.457 97.0574H120.495V112.434C120.495 119.02 117.068 122 110.72 122C107.323 122 103.971 121.121 101.9 119.422L103.807 116.233C105.401 117.559 107.979 118.409 110.497 118.409C114.505 118.409 116.263 116.576 116.263 112.911V111.957C114.773 113.581 112.628 114.371 110.184 114.371C104.999 114.371 101.021 110.84 101.021 105.58C101.021 100.32 104.999 96.8636 110.184 96.8636C112.732 96.8636 114.967 97.6831 116.457 99.4711V97.0574ZM116.308 105.58C116.308 102.526 113.998 100.455 110.81 100.455C107.591 100.455 105.282 102.526 105.282 105.58C105.282 108.664 107.591 110.78 110.81 110.78C114.013 110.78 116.308 108.679 116.308 105.58Z" fill="#061EFF"/>
<path id="Vector_4" d="M125.173 106.563V97.0573H129.42V106.563C129.42 109.99 131.327 111.793 134.039 111.793C136.75 111.793 138.658 110.065 138.658 106.563V97.0573H142.889V106.563C142.889 112.642 138.985 115.429 134.024 115.429C129.077 115.429 125.173 112.508 125.173 106.563Z" fill="#061EFF"/>
<path id="Vector_5" d="M151.576 99.7095C152.797 97.8023 155.003 96.8636 157.997 96.8636V100.901C157.655 100.827 157.357 100.797 157.044 100.797C153.825 100.797 151.784 102.704 151.784 106.4V115.19H147.538V97.0574H151.576V99.7095Z" fill="#061EFF"/>
<path id="Vector_6" d="M159.934 106.131C159.934 100.693 164.002 96.8636 169.575 96.8636C175.207 96.8636 179.245 100.693 179.245 106.131C179.245 111.57 175.207 115.429 169.575 115.429C164.002 115.429 159.934 111.555 159.934 106.131ZM174.968 106.131C174.968 102.675 172.659 100.469 169.575 100.469C166.52 100.469 164.211 102.675 164.211 106.131C164.211 109.588 166.52 111.793 169.575 111.793C172.659 111.793 174.968 109.588 174.968 106.131Z" fill="#061EFF"/>
<path id="Vector_7" d="M181.658 113.388L183.327 110.169C184.892 111.227 187.365 111.972 189.6 111.972C192.312 111.972 193.399 111.227 193.399 109.975C193.399 106.519 182.195 109.767 182.195 102.54C182.195 99.1135 185.279 96.8785 190.166 96.8785C192.58 96.8785 195.321 97.4596 196.96 98.443L195.336 101.661C193.638 100.648 191.88 100.305 190.181 100.305C187.574 100.305 186.352 101.155 186.352 102.347C186.352 106.012 197.556 102.749 197.556 109.841C197.556 113.239 194.427 115.444 189.376 115.444C186.307 115.429 183.282 114.55 181.658 113.388Z" fill="#061EFF"/>
<path id="Vector_8" d="M157.029 18.7738C155.092 18.7738 153.87 19.9955 153.87 21.9325V53.8628C153.87 62.4898 149.743 66.0061 143.664 66.0061C137.346 66.0061 133.338 62.609 133.338 53.8628V21.9325C133.338 19.9955 132.251 18.7738 130.18 18.7738H119.377C117.44 18.7738 116.218 19.9955 116.218 21.9325V54.5929C116.218 72.3236 128.243 80.5781 143.545 80.5781C159.324 80.5781 170.99 71.8319 170.99 54.5929V21.9325C170.99 19.9955 169.902 18.7738 167.831 18.7738H157.029ZM79.1924 66.617L107.13 32.9882C108.098 31.7813 108.59 30.6787 108.59 29.0993V21.9325C108.59 19.9955 107.502 18.7738 105.431 18.7738H64.382C62.445 18.7738 61.2233 19.9955 61.2233 21.9325V28.4884C61.2233 30.4254 62.445 31.6472 64.382 31.6472H89.7564L61.8341 65.2909C60.8657 66.5127 60.374 67.6004 60.374 69.1798V76.3466C60.374 78.2836 61.4616 79.5053 63.5327 79.5053H106.519C108.456 79.5053 109.677 78.2836 109.677 76.3466V69.7907C109.677 67.8537 108.59 66.6319 106.519 66.6319H79.1924V66.617ZM28.4437 17.6861C15.6895 17.6861 6.2281 24.3612 4.27623 35.536C3.91863 37.6071 5.12551 38.814 7.19659 38.814H15.4511C17.2688 38.814 18.3714 37.8455 18.8482 36.0277C19.9359 32.869 22.4987 30.6787 27.7136 30.6787C33.9119 30.6787 36.579 34.6867 36.579 40.6318V76.3317C36.579 78.2686 37.8008 79.4904 39.7377 79.4904H49.81C51.747 79.4904 52.9688 78.2686 52.9688 76.3317V40.3934C52.9688 28.0116 44.2226 17.6861 28.4437 17.6861ZM183.372 2.50317C181.435 2.50317 180.213 3.59086 180.213 5.66193V76.3317C180.213 78.2686 181.435 79.4904 183.372 79.4904H194.174C196.111 79.4904 197.333 78.4027 197.333 76.3317V5.66193C197.333 3.72496 196.245 2.50317 194.174 2.50317H183.372Z" fill="#061EFF"/>
<path id="Vector_9" d="M20.666 80.4589C23.4523 80.4589 25.7617 80.1013 27.952 79.2371C30.1423 78.3879 31.1108 77.0469 31.6025 74.8715L32.5709 70.6251C32.9434 69.1649 32.2133 68.5689 30.7532 68.9265C29.293 69.1649 27.5944 69.2841 26.015 69.2841C20.1892 69.2841 17.7605 66.4978 17.7605 62.8474C17.7605 55.5614 28.5629 49.7355 59.778 45.8467C61.5957 45.6083 61.4766 43.5372 59.778 43.5372C22.2603 43.7756 2.47335 51.3 2.47335 65.1568C2.45845 73.903 9.50605 80.4589 20.666 80.4589Z" fill="#00B7FF"/>
</g>
</g>
</svg>
