<svg width="200" height="77" viewBox="0 0 200 77" fill="none" xmlns="http://www.w3.org/2000/svg">
<g id="bradesco">
<path id="path8-5" d="M120.665 19.7569V24.4649C119.748 24.2419 118.806 24.1415 117.863 24.1662C111.939 24.1662 107.932 28.1427 107.932 34.4681C107.932 40.7935 111.857 44.5228 117.986 44.5228C120.712 44.5515 123.425 44.1446 126.022 43.3175V15.4301C124.417 15.984 122.911 16.7908 121.561 17.8202C120.943 18.2649 120.6 18.9978 120.654 19.7569M120.654 39.8869C119.912 40.1043 119.141 40.2051 118.367 40.1857C114.824 40.1857 113.443 37.8574 113.443 34.4887C113.443 30.7285 114.824 28.4415 118.326 28.4415C119.112 28.4332 119.896 28.5335 120.654 28.7402V39.8869ZM96.7025 24.0837C94.753 24.0436 92.8066 24.2583 90.9128 24.7225C90.5935 26.1158 90.5935 27.5633 90.9128 28.9566C92.514 28.5658 94.1582 28.3789 95.8063 28.4003C98.5671 28.4003 99.927 29.5232 99.927 31.8102V32.0265C99.1028 31.9338 98.1138 31.8514 97.4236 31.8514C92.8496 31.8514 88.9142 33.4894 88.9142 37.8986C88.9142 42.8642 92.4581 44.5434 97.5987 44.5434C100.135 44.5231 102.655 44.1309 105.078 43.3793V32.2017C105.078 26.8447 102.183 24.2074 96.7025 24.0837ZM99.927 40.1548C99.1718 40.2885 98.4069 40.3608 97.64 40.3711C95.1778 40.3711 93.8385 39.6397 93.8385 37.9089C93.8385 36.1782 95.1778 35.488 97.64 35.488C98.4641 35.488 99.4119 35.5807 99.927 35.6219V40.1548ZM27.3705 28.8226L23.4764 31.0582V44.4507H27.5971C27.9784 44.4568 28.292 44.152 28.2976 43.7707V29.348C28.3095 29.0199 28.0586 28.7416 27.731 28.7196C27.5857 28.7166 27.4436 28.7638 27.3293 28.8535M19.201 34.0045V43.9665C19.201 44.2168 19.404 44.4198 19.6543 44.4198H22.3328V31.6557L19.6646 33.1906C19.3689 33.337 19.1872 33.6439 19.201 33.9736M22.0547 9.4859C19.1718 9.49619 16.2946 9.74385 13.4526 10.2276C16.5564 6.25747 21.3214 3.94532 26.3608 3.96407C30.106 3.98373 33.7353 5.26485 36.6628 7.60065C37.1367 7.98182 37.4973 8.02302 37.8579 7.66246C38.2184 7.30189 38.1772 6.95163 37.7857 6.48805C28.8242 -4.14476 11.7367 -1.23626 6.79752 11.7626C4.63721 12.4226 2.55178 13.3065 0.575152 14.3999C0.0703765 14.6781 -0.115086 15.0387 0.0703771 15.4301C0.252273 15.8168 0.707775 15.9899 1.10055 15.8216C2.69734 15.358 4.32504 14.9665 6.02486 14.606C5.83111 15.5169 5.73442 16.4458 5.73643 17.3772C5.65193 23.5991 8.79841 29.4203 14.0501 32.758C14.5549 33.0773 14.9979 33.0773 15.2863 32.6859C15.5748 32.2944 15.5335 31.9338 15.1009 31.5423C11.8754 28.5652 10.0446 24.373 10.0529 19.9836C10.0399 17.8584 10.4677 15.7537 11.3098 13.8024C13.0096 13.6582 14.8536 13.5552 16.8831 13.5552C30.049 13.5758 41.206 17.9129 41.206 23.6099C41.206 26.4944 37.5488 29.3686 33.2117 31.2951C32.1815 31.7587 32.0578 32.078 32.1815 32.5416C32.3051 33.0052 32.7893 33.1082 33.3353 32.9331C40.9278 30.44 46.7278 26.3502 46.7278 21.4052C46.7278 14.6781 35.8798 9.4859 22.1371 9.4859M64.4368 24.1662C63.0535 24.1446 61.6822 24.426 60.419 24.9903V15.4301C58.8194 15.9952 57.3204 16.8125 55.9789 17.8511C55.3613 18.2958 55.0182 19.0287 55.0724 19.7878V43.4823C57.3493 44.261 59.7436 44.6409 62.1498 44.6052C69.1448 44.5434 73.142 40.2784 73.142 34.0972C73.142 27.9161 70.2883 24.1662 64.4162 24.1662M62.4589 40.1548C61.7651 40.1861 61.0706 40.1131 60.3985 39.9384V29.2141C61.3692 28.7806 62.4266 28.5762 63.4891 28.6166C66.1675 28.6166 67.6098 30.4709 67.6098 33.9633C67.6098 37.6411 65.9203 40.1445 62.4589 40.1445M86.8126 24.3413C84.6437 24.2442 82.5827 25.2923 81.3835 27.1022C81.2591 26.2372 81.0556 25.3855 80.7757 24.5576C80.0545 24.3829 79.3125 24.3101 78.5711 24.3413C77.8475 24.331 77.1251 24.4036 76.4179 24.5576V44.1313C77.3009 44.2957 78.1986 44.3683 79.0964 44.3477C79.9903 44.3477 80.8826 44.2753 81.7647 44.1313V34.5711C81.7647 30.7697 83.7529 28.7402 86.4314 28.7402C87.0235 28.7299 87.6156 28.7609 88.2034 28.8329C88.512 27.41 88.5434 25.941 88.2961 24.5061C87.7974 24.405 87.2905 24.3498 86.7817 24.3413M190.584 24.0837C184.578 24.0837 181.209 28.2045 181.209 34.3857C181.209 40.5668 184.753 44.5743 190.584 44.5743C196.631 44.5743 200 40.5668 200 34.3857C200 28.2045 196.631 24.0837 190.584 24.0837ZM190.584 40.2269C187.607 40.2269 186.7 37.8162 186.7 34.3548C186.7 30.8933 187.607 28.4003 190.584 28.4003C193.561 28.4003 194.519 30.9036 194.519 34.3548C194.519 37.9811 193.489 40.2269 190.584 40.2269ZM158.926 32.5004L156.773 31.5938C155.516 31.0788 154.785 30.6461 154.785 29.8219C154.785 28.5651 155.908 28.3075 157.381 28.3075C159.097 28.3073 160.802 28.5856 162.429 29.1317C162.686 27.8048 162.686 26.4408 162.429 25.1139C160.58 24.3624 158.593 24.0113 156.598 24.0837C152.477 24.0837 149.304 26.3296 149.304 29.688C149.304 32.7168 150.592 34.2312 154.228 35.694L155.908 36.3843C157.504 37.0333 157.968 37.4144 157.968 38.4446C157.968 40.0002 156.413 40.2681 155.125 40.2681C153.128 40.2461 151.151 39.8585 149.294 39.1246C148.954 40.5015 148.954 41.9405 149.294 43.3175C151.41 44.2578 153.719 44.685 156.031 44.564C160.152 44.564 163.418 42.4109 163.418 38.5271C163.418 35.3335 162.037 33.8191 158.967 32.521M175.646 40.1548C172.968 40.1548 171.196 38.0944 171.196 34.3239C171.196 30.78 172.617 28.493 175.687 28.493C176.86 28.4837 178.021 28.719 179.097 29.1832C179.492 27.8266 180.134 26.5551 180.993 25.4333C179.145 24.4738 177.078 24.0122 174.997 24.094C169.074 24.094 165.664 28.2766 165.664 34.3239C165.664 40.5874 169.166 44.5537 175.214 44.5537C177.248 44.6246 179.268 44.1817 181.086 43.2659C180.178 42.1469 179.48 40.873 179.025 39.5057C177.957 39.9918 176.787 40.2144 175.615 40.1548M138.322 24.094C132.533 24.094 128.989 27.9779 128.989 34.4578C128.989 40.9377 132.749 44.5537 139.188 44.5537C141.266 44.6028 143.332 44.2204 145.255 43.4308C145.554 42.0735 145.554 40.6673 145.255 39.31C143.465 39.878 141.602 40.1834 139.723 40.2166C136.746 40.2166 134.675 39.0937 134.243 35.9413H146.492C146.656 35.0444 146.729 34.1331 146.708 33.2216C146.708 27.3907 143.422 24.1146 138.374 24.1146M134.315 32.0162C134.706 29.6365 136.128 28.2148 138.281 28.2148C140.702 28.2148 141.65 29.8528 141.743 32.0162H134.315Z" fill="#CE1C30"/>
<path id="path8-6" d="M102.117 57.5694V68.994C101.203 69.2139 100.265 69.3242 99.3249 69.3224C96.783 69.3224 95.4477 67.9515 95.4477 64.9739V57.5694C95.0855 57.4982 94.7172 57.4623 94.3481 57.4622C93.9553 57.4621 93.5633 57.498 93.177 57.5694V65.0311C93.177 69.0797 95.3192 71.129 99.1893 71.129C100.948 71.1001 102.695 70.8433 104.387 70.3649V57.5694C104.016 57.498 103.638 57.4621 103.259 57.4622C102.876 57.4621 102.493 57.498 102.117 57.5694ZM113.327 57.4622C111.87 57.4686 110.513 58.2063 109.714 59.4259C109.686 58.8028 109.614 58.1825 109.5 57.5694C109.187 57.4911 108.865 57.4551 108.543 57.4622C108.212 57.4622 107.881 57.4981 107.558 57.5694V70.9719C107.918 71.0432 108.283 71.0791 108.65 71.079C109.043 71.0792 109.435 71.0433 109.821 70.9719V63.3888C109.821 60.961 111.356 59.3188 113.299 59.3188C113.646 59.302 113.993 59.3284 114.334 59.3973C114.411 59.077 114.449 58.7486 114.448 58.4191C114.448 58.1337 114.42 57.849 114.363 57.5694C114.021 57.5051 113.675 57.4693 113.327 57.4622ZM78.8749 64.3242C78.8749 68.23 81.2312 70.6363 84.5872 70.6363C85.7016 70.6505 86.8073 70.4366 87.836 70.0079V71.0219C87.836 73.8066 86.408 74.9562 83.8445 74.9562C82.4653 74.9637 81.1018 74.6636 79.8531 74.0779C79.8019 74.3775 79.7756 74.6809 79.7745 74.9848C79.7745 75.2958 79.802 75.6062 79.8531 75.913C81.1877 76.5062 82.6341 76.8057 84.0945 76.7913C87.8932 76.7913 90.1067 74.6492 90.1067 70.7719V58.1192C88.7333 57.6197 87.2838 57.3612 85.8224 57.3551C81.3954 57.3551 78.932 60.3113 78.932 64.3313M87.836 68.2585C86.9334 68.6432 85.961 68.8376 84.9799 68.8298C82.6878 68.8298 81.2097 67.0804 81.2097 64.3742C81.2097 61.1753 82.852 59.1831 85.6654 59.1831C86.4035 59.1552 87.1414 59.2469 87.8503 59.4544L87.836 68.2585ZM135.548 63.4459L134.234 62.8461C132.92 62.2463 132.214 61.8607 132.214 60.8468C132.214 59.5901 133.442 59.1831 134.806 59.1831C135.897 59.1903 136.978 59.3833 138.004 59.7543C138.062 59.4482 138.09 59.1375 138.09 58.8261C138.09 58.5501 138.062 58.2749 138.004 58.0049C136.895 57.5488 135.705 57.3252 134.506 57.348C132.049 57.348 129.971 58.7404 129.971 60.7968C129.971 62.5462 130.686 63.553 133.113 64.5955L134.127 65.0311C135.684 65.7451 136.269 66.2878 136.269 67.3588C136.269 68.7869 134.906 69.301 133.592 69.301C132.268 69.2995 130.958 69.0379 129.736 68.5299C129.593 69.1236 129.593 69.7427 129.736 70.3364C131.04 70.9217 132.463 71.1932 133.892 71.129C136.462 71.129 138.54 69.7009 138.54 67.3803C138.54 65.4952 137.583 64.3742 135.534 63.4459M71.556 57.348C67.9857 57.348 65.708 60.1399 65.708 64.2956C65.708 68.4513 68.0572 71.129 72.1343 71.129C73.4699 71.1432 74.7959 70.9008 76.0401 70.4149C76.0972 70.1281 76.1259 69.8363 76.1258 69.5438C76.1259 69.249 76.0972 68.9548 76.0401 68.6655C74.8371 69.0872 73.5732 69.3091 72.2985 69.3224C69.5638 69.3224 68.0572 67.5731 67.9215 64.7312H76.7541C76.8053 64.2401 76.8315 63.7468 76.8327 63.2531C76.8327 59.6187 74.6906 57.348 71.5845 57.348M67.95 63.0603C68.1428 60.5969 69.6423 59.1188 71.5203 59.1188C73.5481 59.1188 74.6692 60.7611 74.6692 63.0603H67.95ZM121.889 57.348C118.254 57.348 115.983 59.89 115.983 64.267C115.983 68.6441 118.226 71.1575 121.86 71.1575C125.494 71.1575 127.794 68.5584 127.794 64.267C127.794 59.8686 125.652 57.348 121.889 57.348ZM121.889 69.3224C119.539 69.3224 118.318 67.5231 118.318 64.267C118.318 61.011 119.604 59.1831 121.924 59.1831C124.245 59.1831 125.537 60.9039 125.537 64.267C125.537 67.6302 124.273 69.3224 121.896 69.3224M60.6954 63.453L59.3816 62.8533C58.0677 62.2535 57.3609 61.8679 57.3609 60.8539C57.3609 59.5972 58.5889 59.1902 59.9599 59.1902C61.051 59.1974 62.1328 59.3905 63.1589 59.7615C63.2101 59.4547 63.2364 59.1442 63.2374 58.8332C63.2374 58.5577 63.2099 58.2828 63.1589 58.0121C62.0488 57.5592 60.8587 57.3358 59.6601 57.3551C57.1966 57.3551 55.1188 58.7475 55.1188 60.804C55.1188 62.5534 55.8328 63.5601 58.2605 64.6026L59.2745 65.0382C60.8311 65.7523 61.4166 66.2949 61.4166 67.366C61.4166 68.7941 60.0528 69.3082 58.739 69.3082C57.4154 69.3067 56.1052 69.045 54.8831 68.537C54.8046 68.8327 54.7685 69.138 54.776 69.4438C54.776 69.7469 54.8117 70.0489 54.8831 70.3435C56.1874 70.9288 57.6107 71.2003 59.0388 71.1361C61.6094 71.1361 63.6872 69.708 63.6872 67.3874C63.6872 65.5023 62.7304 64.3813 60.6811 63.453" fill="#CE1C30"/>
</g>
</svg>
