<svg width="270" height="80" viewBox="0 0 270 80" fill="none" xmlns="http://www.w3.org/2000/svg">
<mask id="mask0_328_6" style="mask-type:luminance" maskUnits="userSpaceOnUse" x="0" y="0" width="270" height="80">
<path d="M269.097 0H0V80H269.097V0Z" fill="white"/>
</mask>
<g mask="url(#mask0_328_6)">
<path d="M259.138 79.8698H9.95931C4.49145 79.8698 0 75.3784 0 69.8454V9.82913C0 4.36127 4.49145 -0.195282 9.95931 -0.195282H259.138C264.605 -0.195282 269.097 4.29618 269.097 9.82913V69.8454C269.097 75.3784 264.605 79.8698 259.138 79.8698Z" fill="#010202"/>
<path d="M133.637 43.7429C128.885 43.7429 125.175 47.1928 125.175 52.1399C125.175 57.0871 128.885 60.537 133.637 60.537C138.389 60.537 142.099 57.0871 142.099 52.1399C142.099 47.1928 138.389 43.7429 133.637 43.7429ZM133.637 57.3474C131.164 57.3474 128.885 55.1342 128.885 52.1399C128.885 49.1456 131.099 46.9325 133.637 46.9325C136.111 46.9325 138.389 48.8853 138.389 52.1399C138.389 55.1342 136.176 57.3474 133.637 57.3474ZM115.281 43.7429C110.529 43.7429 106.819 47.1928 106.819 52.1399C106.819 57.0871 110.529 60.537 115.281 60.537C120.033 60.537 123.743 57.0871 123.743 52.1399C123.743 47.1928 119.772 43.7429 115.281 43.7429ZM115.281 57.3474C112.807 57.3474 110.529 55.1342 110.529 52.1399C110.529 49.1456 112.742 46.9325 115.281 46.9325C117.754 46.9325 120.033 48.8853 120.033 52.1399C119.968 55.1342 117.754 57.3474 115.281 57.3474ZM93.149 46.2164V49.6664H101.872C101.611 51.6192 100.895 53.1163 99.8537 54.0928C98.6169 55.3295 96.599 56.8267 93.149 56.8267C87.9415 56.8267 83.7105 52.5956 83.7105 47.3881C83.7105 42.1806 87.9415 37.9495 93.149 37.9495C95.883 37.9495 98.0961 38.9259 99.5933 40.4231L102.067 37.9495C99.8537 35.9967 97.1197 34.2392 93.149 34.2392C85.9236 34.2392 79.7397 40.1627 79.7397 47.3881C79.7397 54.5484 85.7284 60.537 93.149 60.537C97.1197 60.537 100.114 59.3002 102.327 56.8267C104.801 54.3531 105.322 51.0984 105.322 48.4296C105.322 47.7136 105.322 46.9325 105.061 46.2164C105.322 46.2164 93.149 46.2164 93.149 46.2164ZM183.108 49.2107C182.392 47.2579 180.374 43.7429 175.883 43.7429C171.392 43.7429 167.942 47.1928 167.942 52.1399C167.942 56.8267 171.391 60.537 176.404 60.537C180.374 60.537 182.588 58.0635 183.369 56.8267L180.374 54.8739C179.398 56.371 178.161 57.0871 176.143 57.0871C174.125 57.0871 172.889 56.371 172.173 54.6135L183.629 49.9268C183.629 50.1871 183.108 49.2107 183.108 49.2107ZM171.652 51.8796C171.652 48.69 174.125 46.9325 176.143 46.9325C177.64 46.9325 178.877 47.6485 179.398 48.69C179.138 48.69 171.652 51.8796 171.652 51.8796ZM162.474 60.0814H166.184V35.2807H162.474V60.0814ZM156.55 45.6957C155.574 44.7193 154.077 43.7429 152.059 43.7429C147.828 43.7429 143.857 47.4532 143.857 52.1399C143.857 56.8267 147.828 60.6021 152.059 60.6021C154.077 60.6021 155.769 59.6257 156.55 58.6493H156.811V59.8861C156.811 63.0757 155.053 64.8332 152.319 64.8332C150.106 64.8332 148.609 63.0757 148.088 61.8389L144.833 63.0757C145.81 65.2888 148.283 68.0228 152.319 68.0228C156.811 68.0228 160.261 65.5492 160.261 59.3653V44.2636H156.811L156.55 45.6957ZM152.059 57.3474C149.585 57.3474 147.307 55.1342 147.307 52.1399C147.307 49.1456 149.52 46.9325 152.059 46.9325C154.532 46.9325 156.55 49.1456 156.55 52.1399C156.745 55.1342 154.793 57.3474 152.059 57.3474ZM200.488 35.3458H191.571V60.1465H195.281V50.7079H200.488C204.719 50.7079 208.69 47.7136 208.69 43.0268C208.69 38.275 204.719 35.3458 200.488 35.3458ZM200.749 47.1928H195.541V38.7958H200.749C203.483 38.7958 205.24 41.0089 205.24 43.0268C204.98 44.9797 203.483 47.1928 200.749 47.1928ZM223.597 43.7429C220.863 43.7429 218.129 44.9797 216.892 47.4532L220.147 48.9504C220.863 47.4532 222.164 47.1928 223.597 47.1928C225.614 47.1928 227.567 48.4296 227.567 50.3824V50.6428C226.851 50.122 225.549 49.6664 223.597 49.6664C220.147 49.6664 216.371 51.6192 216.371 55.1343C216.371 58.3238 219.365 60.6021 222.555 60.6021C225.029 60.6021 226.526 59.3653 227.307 58.1286H227.567V60.0814H231.017V50.6428C231.082 46.2164 227.828 43.7429 223.597 43.7429ZM223.141 57.3474C221.904 57.3474 220.147 56.8267 220.147 55.3946C220.147 53.4418 222.164 52.6607 224.117 52.6607C225.875 52.6607 226.591 52.9211 227.567 53.3767C227.307 55.655 225.354 57.3474 223.141 57.3474ZM244.231 44.1985L240 54.8739H239.74L235.248 44.1985H231.278L237.982 59.3002L234.272 67.502H238.243L248.462 44.1985H244.231ZM210.708 60.0814H214.418V35.2807H210.708V60.0814Z" fill="white"/>
<path d="M20.5042 15.4923C19.9835 16.013 19.5278 16.9894 19.5278 18.2262V62.0993C19.5278 63.336 19.7882 64.3124 20.5042 64.8332L20.7646 65.0936L45.37 40.5533V40.0325L20.5042 15.4923Z" fill="url(#paint0_linear_328_6)"/>
<path d="M53.507 48.69L45.3052 40.4882V39.9674L53.507 31.7657H53.7673L63.4663 37.2335C66.2002 38.7307 66.2002 41.4646 63.4663 42.9617L53.507 48.69Z" fill="url(#paint1_linear_328_6)"/>
<path d="M53.7674 48.69L45.3052 40.2929L20.4395 65.0936C21.4159 66.07 22.913 66.07 24.6705 65.0936L53.7674 48.69Z" fill="url(#paint2_linear_328_6)"/>
<path d="M53.7674 31.8308L24.6705 15.4923C22.913 14.5159 21.4159 14.7762 20.4395 15.7526L45.3052 40.5533L53.7674 31.8308Z" fill="url(#paint3_linear_328_6)"/>
<path d="M83.7104 12.8234C84.4916 12.6282 85.9236 12.4329 87.0953 12.4329C88.9179 12.4329 90.0896 12.8234 91.066 13.4093C91.8471 13.9951 92.2377 14.8413 92.2377 16.013C92.2377 17.4451 91.2613 18.6168 89.8292 19.2026C91.1962 19.5932 92.8235 20.6347 92.8235 22.7828C92.8235 23.9544 92.433 24.9959 91.6519 25.5818C90.6755 26.5582 89.0481 27.0138 86.6397 27.0138C85.468 27.0138 84.4265 27.0138 83.8406 26.8186L83.7104 12.8234ZM85.5331 18.812H87.0953C89.1132 18.812 90.2849 17.8356 90.2849 16.4036C90.2849 14.7762 89.1132 13.9951 87.0953 13.9951C86.3142 13.9951 85.7284 13.9951 85.5331 14.1904V18.812ZM85.5331 25.8422C85.9236 25.8422 86.5095 25.8422 87.0953 25.8422C89.1132 25.8422 90.8707 25.061 90.8707 23.0431C90.8707 21.0252 89.3085 20.2441 87.0953 20.2441H85.5331V25.8422Z" fill="white"/>
<path d="M100.895 27.2091L100.699 25.7771C100.114 26.5582 99.1372 27.4044 97.5099 27.4044C95.2967 27.4044 94.3203 25.9723 94.3203 24.4101C94.3203 21.8063 96.5335 20.6347 100.504 20.6347V20.4394C100.504 19.6583 100.309 18.0309 98.0957 18.0309C97.1193 18.0309 96.0778 18.4215 95.2967 18.812L94.9062 17.6404C95.6873 17.0545 97.1193 16.664 98.291 16.664C101.481 16.664 102.262 18.8771 102.262 20.895V24.6705C102.262 25.6469 102.262 26.4931 102.457 27.0789H100.895V27.2091ZM100.699 21.8063C98.6816 21.8063 96.3382 22.1969 96.3382 24.2148C96.3382 25.3865 97.1193 26.0374 98.1608 26.0374C99.5278 26.0374 100.374 25.2563 100.765 24.2148C100.765 24.0195 100.96 23.8242 100.96 23.629L100.699 21.8063Z" fill="white"/>
<path d="M107.665 13.7998C107.665 14.3857 107.274 14.9715 106.493 14.9715C105.907 14.9715 105.321 14.3857 105.321 13.7998C105.321 13.214 105.712 12.6282 106.493 12.6282C107.079 12.6282 107.665 13.214 107.665 13.7998ZM105.451 27.2091V16.7941H107.469V27.2091H105.451Z" fill="white"/>
<path d="M111.44 16.7941L112.807 19.0073C113.198 19.5932 113.588 20.179 113.784 20.6347C114.174 20.0488 114.369 19.463 114.76 18.812L116.127 16.5989H118.145L114.565 21.6111L118.145 27.0138H115.932L114.369 24.6054C113.979 24.0195 113.588 23.4337 113.198 22.7827C112.807 23.3686 112.417 23.9544 112.221 24.6054L110.659 27.0138H108.641L112.221 21.8063L108.641 16.7941H111.44Z" fill="white"/>
<path d="M126.217 27.2091L126.021 25.7771C125.435 26.5582 124.459 27.4044 122.832 27.4044C120.618 27.4044 119.642 25.9723 119.642 24.4101C119.642 21.8063 121.855 20.6347 125.826 20.6347V20.4394C125.826 19.463 125.631 18.0309 123.418 18.0309C122.441 18.0309 121.4 18.4215 120.618 18.812L120.228 17.6404C121.009 17.0545 122.441 16.664 123.613 16.664C126.802 16.664 127.583 18.8771 127.583 20.895V24.6705C127.583 25.6469 127.584 26.4931 127.779 27.0789H126.217V27.2091ZM125.761 21.8063C123.743 21.8063 121.4 22.1969 121.4 24.2148C121.4 25.3865 122.181 26.0374 123.222 26.0374C124.589 26.0374 125.435 25.2563 125.826 24.2148C125.826 24.0195 126.021 23.8242 126.021 23.629V21.8063H125.761Z" fill="white"/>
<path d="M130.773 19.9837C130.773 18.812 130.773 17.7705 130.773 16.7941H132.335V18.812C132.726 17.38 133.898 16.5989 135.134 16.5989C135.33 16.5989 135.525 16.5989 135.72 16.5989V18.4215C135.525 18.4215 135.33 18.4215 135.134 18.4215C133.767 18.4215 132.921 19.3979 132.531 20.8299C132.531 21.0252 132.531 21.4158 132.531 21.6111V27.2091H130.708V19.9837H130.773Z" fill="white"/>
<path d="M142.36 19.5932C142.36 18.6168 142.36 17.5753 142.36 16.7941H143.922L144.117 18.6168C144.703 17.6404 145.94 16.5989 147.502 16.5989C148.869 16.5989 151.082 17.38 151.082 21.0252V27.2091H149.26V21.2205C149.26 19.5932 148.674 18.2262 146.851 18.2262C145.679 18.2262 144.638 19.0073 144.247 20.2441C144.247 20.4394 144.052 20.8299 144.052 21.0252V27.2091H142.229V19.5932H142.36Z" fill="white"/>
<path d="M159.87 27.2091L159.675 25.7771C159.089 26.5582 158.112 27.4044 156.485 27.4044C154.272 27.4044 153.295 25.9723 153.295 24.4101C153.295 21.8063 155.509 20.6347 159.479 20.6347V20.4394C159.479 19.463 159.284 18.0309 157.071 18.0309C156.094 18.0309 155.053 18.4215 154.272 18.812L153.881 17.6404C154.662 17.0545 156.094 16.664 157.266 16.664C160.456 16.664 161.237 18.8771 161.237 20.895V24.6705C161.237 25.6469 161.237 26.4931 161.432 27.0789H159.87V27.2091ZM159.479 21.8063C157.461 21.8063 155.118 22.1969 155.118 24.2148C155.118 25.3865 155.899 26.0374 156.941 26.0374C158.308 26.0374 159.154 25.2563 159.544 24.2148C159.544 24.0195 159.74 23.8242 159.74 23.629V21.8063H159.479Z" fill="white"/>
</g>
<defs>
<linearGradient id="paint0_linear_328_6" x1="43.0172" y1="62.8038" x2="-7.96482" y2="10.4474" gradientUnits="userSpaceOnUse">
<stop stop-color="#4596D2"/>
<stop offset="0.0066" stop-color="#4597D3"/>
<stop offset="0.2601" stop-color="#3EB9EB"/>
<stop offset="0.5122" stop-color="#49C1ED"/>
<stop offset="0.7604" stop-color="#5AC3E6"/>
<stop offset="1" stop-color="#5EC4E4"/>
</linearGradient>
<linearGradient id="paint1_linear_328_6" x1="67.1212" y1="40.2684" x2="-8.39297" y2="40.2684" gradientUnits="userSpaceOnUse">
<stop stop-color="#FFE006"/>
<stop offset="0.4087" stop-color="#FBBC0D"/>
<stop offset="0.7754" stop-color="#F6A316"/>
<stop offset="1" stop-color="#F59A1A"/>
</linearGradient>
<linearGradient id="paint2_linear_328_6" x1="32.6368" y1="52.2381" x2="-36.4989" y2="-18.7613" gradientUnits="userSpaceOnUse">
<stop stop-color="#E84049"/>
<stop offset="1" stop-color="#C40F62"/>
</linearGradient>
<linearGradient id="paint3_linear_328_6" x1="-1.61054" y1="63.5897" x2="29.2616" y2="31.8856" gradientUnits="userSpaceOnUse">
<stop stop-color="#30A071"/>
<stop offset="0.0685" stop-color="#2CA771"/>
<stop offset="0.4762" stop-color="#4DB26F"/>
<stop offset="0.8009" stop-color="#5FB568"/>
<stop offset="1" stop-color="#63B664"/>
</linearGradient>
</defs>
</svg>
