<svg width="127" height="84" viewBox="0 0 127 84" fill="none" xmlns="http://www.w3.org/2000/svg">
<g id="hdi" clip-path="url(#clip0_155_140)">
<path id="Vector" d="M0 81.0903L1.76438 78.8764C3.35232 80.3312 4.94025 81.1535 6.99869 81.1535C8.76307 81.1535 9.93932 80.268 9.93932 78.9397V78.8764C9.93932 77.6113 9.29238 76.9156 6.23413 76.1565C2.70538 75.271 0.764563 74.1324 0.764563 70.8433C0.764563 67.8071 3.11706 65.7198 6.41057 65.7198C8.82188 65.7198 10.7039 66.4788 12.4094 67.9336L10.8803 70.274C9.41001 69.0722 7.88088 68.4396 6.41057 68.4396C4.705 68.4396 3.70519 69.3884 3.70519 70.527V70.5903C3.70519 71.9818 4.46975 72.5511 7.64563 73.3734C11.1156 74.2589 12.9388 75.6505 12.9388 78.5601V78.6234C12.9388 81.9758 10.5274 83.9367 7.05751 83.9367C4.35213 83.9367 1.99963 82.9879 0 81.0903ZM17.879 65.9095H30.112V68.6927H20.7608V73.3101H29.0534V76.0933H20.7608V80.8373H30.2297V83.6204H17.879V65.9095ZM34.2877 74.8282C34.2877 69.8312 37.8165 65.5933 42.8155 65.5933C45.6973 65.5933 47.4617 66.4788 49.1673 67.9969L47.3441 70.3372C46.0502 69.1987 44.8152 68.4396 42.6979 68.4396C39.6397 68.4396 37.346 71.286 37.346 74.7017V74.765C37.346 78.4336 39.5808 81.0903 42.9332 81.0903C44.4623 81.0903 45.9326 80.5842 46.9324 79.762V76.4095H42.6979V73.6897H49.7554V81.1535C48.1087 82.6716 45.815 83.9367 42.8743 83.9367C37.6988 83.9999 34.2877 80.015 34.2877 74.8282ZM55.0485 76.1565V65.9095H57.9304V76.03C57.9304 79.3192 59.5183 81.0903 62.106 81.0903C64.6938 81.0903 66.2817 79.4457 66.2817 76.1565V65.9095H69.1636V75.9668C69.1636 81.28 66.3994 83.9367 62.0472 83.9367C57.7539 83.9367 55.0485 81.28 55.0485 76.1565ZM74.986 65.9095H82.3376C84.396 65.9095 86.0428 66.5421 87.1014 67.6806C87.9836 68.6294 88.4541 69.9577 88.4541 71.5391V71.6023C88.4541 74.5119 86.8073 76.283 84.5136 76.9788L88.9834 83.6836H85.5134L81.4554 77.4848H77.809V83.6836H74.9272V65.9095H74.986ZM82.1611 74.7017C84.2196 74.7017 85.5723 73.5632 85.5723 71.7288V71.6656C85.5723 69.768 84.2784 68.6927 82.1611 68.6927H77.9266V74.6385H82.1611V74.7017ZM92.6886 74.8282C92.6886 69.768 96.2761 65.5933 101.334 65.5933C106.392 65.5933 109.921 69.7047 109.921 74.7017V74.765C109.921 79.7619 106.333 83.9367 101.275 83.9367C96.2173 83.9367 92.6886 79.8252 92.6886 74.8282ZM106.921 74.8282C106.921 71.3493 104.569 68.4396 101.334 68.4396C98.0405 68.4396 95.7468 71.286 95.7468 74.7017V74.765C95.7468 78.2439 98.0993 81.027 101.334 81.027C104.628 81.0903 106.921 78.3071 106.921 74.8282ZM113.685 81.0903L115.449 78.8764C117.037 80.3312 118.625 81.1535 120.683 81.1535C122.448 81.1535 123.624 80.268 123.624 78.9397V78.8764C123.624 77.6113 122.977 76.9156 119.919 76.1565C116.39 75.271 114.449 74.1324 114.449 70.8433C114.449 67.8071 116.802 65.7198 120.095 65.7198C122.507 65.7198 124.389 66.4788 126.094 67.9336L124.565 70.274C123.095 69.0722 121.566 68.4396 120.095 68.4396C118.39 68.4396 117.39 69.3884 117.39 70.527V70.5903C117.39 71.9818 118.154 72.5511 121.33 73.3734C124.8 74.2589 126.623 75.6505 126.623 78.5601V78.6234C126.623 81.9758 124.212 83.9367 120.742 83.9367C118.096 83.9367 115.684 82.9879 113.685 81.0903Z" fill="#888B8D"/>
<path id="Vector_2" d="M56.6953 53.7651H75.2801C95.5116 53.7651 105.627 42.4428 105.627 26.5663V26.4398C105.627 10.5 95.688 0 75.8682 0H56.6953V53.7651ZM73.3981 39.0904V14.7379H76.1622C83.8079 14.7379 88.7481 18.4066 88.7481 26.8193V27.009C88.7481 35.4217 83.8079 39.0904 76.1622 39.0904H73.3981Z" fill="#00833E"/>
<path id="path34_6_" d="M109.803 53.7651H126.447V0H109.803V53.7651Z" fill="#00833E"/>
<path id="path34_5_" d="M16.7028 35.8645H33.3468V17.9006H16.7028V35.8645Z" fill="#E1251B"/>
<path id="path34_4_" d="M33.3467 53.7651H49.9907V0H33.3467V53.7651Z" fill="#00833E"/>
<path id="path34_2_" d="M0 53.7651H16.644V0H0V53.7651Z" fill="#00833E"/>
</g>
<defs>
<clipPath id="clip0_155_140">
<rect width="126.506" height="84" fill="white"/>
</clipPath>
</defs>
</svg>
