<svg width="200" height="102" viewBox="0 0 200 102" fill="none" xmlns="http://www.w3.org/2000/svg">
<g id="liberty-seguros 1" clip-path="url(#clip0_159_57)">
<g id="Group">
<path id="Vector" fill-rule="evenodd" clip-rule="evenodd" d="M26.458 92.7632C34.2918 80.5548 44.2181 70.3084 64.226 69.5138C64.9403 62.6184 64.679 55.7226 62.9926 48.8268L70.9636 39.3375L61.3792 42.7538C60.6355 41.18 59.8129 39.646 58.8169 38.1985C59.7661 35.0671 60.7625 32.0304 61.7113 28.899C59.6554 30.5121 57.552 32.0308 55.4957 33.6438C52.0144 30.3477 48.6021 28.4341 45.2471 27.6653C44.4562 25.1981 43.8075 22.731 43.017 20.2635C42.4475 22.4145 41.736 24.5655 41.1665 26.7165C34.6475 25.486 28.8036 27.2573 23.4217 31.0812L21.1441 25.4827C26.8108 19.4682 20.6188 14.9865 22.9666 13.7074C22.6428 12.7201 21.6635 12.6098 20.4548 12.7597C17.9589 9.48927 33.0918 9.25261 25.6203 0.959337C24.5774 2.69726 23.1557 3.61342 21.3553 3.70815C21.3419 1.61923 20.5509 0.97313 19.6493 0.533203C19.3303 1.49037 18.0863 2.441 16.5121 2.08892C11.2377 0.909972 1.98002 1.4116 6.61704 11.1009L4.86386 12.7597C4.16877 12.3332 3.47367 12.0646 2.77857 12.1433C3.17349 12.6334 3.37893 13.3121 3.39454 14.1811C-1.12057e-05 20.3216 1.61959 23.3978 5.05334 25.3651C4.11323 26.2301 4.52448 26.8696 5.85914 27.3557C5.25043 29.2039 6.1194 30.3571 7.6595 31.1938L7.94408 33.7056C6.90161 35.3324 7.24898 36.454 8.98654 37.0703C9.49181 39.282 11.1354 40.2297 13.915 39.9139L14.3887 44.0362C9.20542 56.9139 9.65768 78.589 21.9981 90.2956C28.3963 79.6271 36.413 74.2982 45.3418 71.9813C36.4496 76.2278 29.2772 82.5381 24.1803 91.3396L26.458 92.7632Z" fill="#2F3A56"/>
<g id="Group_2">
<path id="Vector_2" fill-rule="evenodd" clip-rule="evenodd" d="M41.2112 39.0605C42.886 38.7287 44.56 38.8554 46.2344 39.5345L43.1066 23.5643L41.2112 39.0605ZM34.5771 43.9418L27.2312 31.7629L37.1829 40.34C35.9854 41.1574 35.0159 42.2394 34.5771 43.9418ZM50.405 41.3828L59.9774 31.7153L54.1487 44.4155C53.0899 43.2148 51.842 42.2039 50.405 41.3828ZM56.613 46.3585C57.5131 47.7959 58.1611 49.2332 58.5556 50.671L67.9865 41.7142L56.613 46.3585ZM40.5705 53.7047C41.3988 54.3124 41.4388 53.7853 41.2798 53.1138H43.9981C44.2816 53.5784 45.0852 53.1454 45.6997 53.0902C46.1034 53.1614 46.278 52.6968 45.487 52.3102C44.4493 50.8732 41.6046 50.4499 39.5542 51.8844C39.0816 52.3654 39.3019 52.7592 39.8377 53.1138C40.1531 53.2398 40.3262 53.4605 40.5705 53.7047ZM46.7084 45.9792L50.5945 48.349L51.874 46.5008L47.6565 43.752L46.7084 45.9792ZM39.1738 43.0412L40.311 45.3632C41.8275 45.1737 43.344 45.1418 44.8602 45.4579L45.3342 43.0888C43.2805 42.1251 41.2268 41.9828 39.1738 43.0412ZM37.7996 44.0837C36.662 44.9683 36.2199 46.1059 36.4722 47.4957C37.1041 46.7694 37.7996 46.2322 38.5575 45.8844C38.3045 45.2844 38.0518 44.6837 37.7996 44.0837ZM34.5767 52.377C33.7237 51.0815 33.9451 49.7864 35.2402 48.491C34.7738 44.099 36.6537 41.9668 39.5999 40.8612C44.3745 39.6768 49.4054 41.3668 54.8122 47.259C56.222 49.3603 56.1886 49.9033 55.9494 50.3392L53.4377 47.5904L51.9687 49.1545C52.932 50.0394 53.8957 50.9236 54.8594 51.8082C52.7509 52.7563 50.9023 52.1403 49.1727 50.8133C48.3513 50.0547 47.7669 48.4434 46.7084 48.5381C43.5967 47.5273 40.6743 47.4645 37.6573 48.349L38.2733 49.6757C41.6852 48.4318 45.3026 49.2928 49.2199 53.23C50.3738 54.5291 51.3059 54.1959 52.2057 53.467L52.5375 54.9835L52.9164 55.4572C54.4173 54.5566 55.3331 54.4619 54.5277 55.5995C53.5324 56.4209 52.7269 57.9058 51.5422 57.6372C50.8627 57.3527 50.6257 57.7 50.8311 58.6797L54.7647 67.826C50.9244 68.0728 47.0264 69.0641 43.0595 70.9537L41.6852 67.0673C42.4275 65.9937 43.1702 64.8089 43.9124 63.6082C40.295 65.3777 39.0624 64.6826 38.984 62.6604C38.9916 61.7134 39.1183 61.5628 39.7662 61.7839C40.4279 61.7516 40.8772 60.9153 39.9317 60.9305C39.4576 61.0256 39.2914 61.0256 38.8174 61.1203C38.1767 61.222 37.9175 60.3073 38.368 60.2909C39.0385 60.4324 39.7294 60.4484 40.4057 60.3381C41.2239 60.1407 40.931 59.1788 38.7473 59.5563C38.1945 59.655 37.9099 59.2445 38.1785 58.8931C38.6838 58.4826 39.3785 58.3556 39.695 57.8267C38.8733 57.6532 38.4065 56.9592 37.2304 57.3055C37.1916 56.0576 37.6489 54.9044 37.752 53.7037C38.0036 53.1675 37.8772 52.8438 37.3727 53.0877C36.3709 53.8601 35.7713 54.0412 35.9041 53.1352C35.731 52.1407 36.0072 51.193 36.4725 50.7182C37.4221 49.9962 37.4224 49.0496 36.8987 49.0597C35.5811 49.5512 34.9727 50.6804 34.5767 52.377ZM33.2025 48.728C32.8908 49.8093 32.7 50.9218 32.6337 52.0452L29.4588 49.8652L29.5059 46.8325L33.2025 48.728Z" fill="white"/>
<path id="Vector_3" fill-rule="evenodd" clip-rule="evenodd" d="M56.5182 56.2155C54.8718 57.5926 52.7956 58.8648 54.2435 61.1443L57.4184 67.1624C58.4453 67.1937 59.4721 67.2256 60.4986 67.2572C59.2177 65.0158 57.9204 62.79 56.8972 60.2909C56.3596 58.9167 56.2968 57.5897 56.5182 56.2155ZM41.2112 71.1904C40.1927 71.1828 39.2446 70.7566 38.605 69.1055C37.894 67.4942 37.2308 65.7882 36.5197 64.1766C28.4007 63.782 31.086 73.8129 28.3687 78.6303C31.5245 75.8543 35.6551 73.3345 41.2112 71.1904Z" fill="white"/>
<path id="Vector_4" fill-rule="evenodd" clip-rule="evenodd" d="M33.5818 57.2108C18.5593 56.3578 25.4308 75.977 21.3553 85.3599C31.4333 76.9247 24.1197 62.2812 36.2355 62.471L33.5818 57.2108Z" fill="white"/>
<path id="Vector_5" fill-rule="evenodd" clip-rule="evenodd" d="M29.3048 55.4696C28.168 53.5142 27.5335 51.3513 27.4072 49.0166C27.0802 47.34 26.3245 45.6638 25.699 43.9872L18.5118 25.2232C18.0845 23.8497 17.2159 22.9495 15.9056 22.5219C14.8628 22.3851 13.8203 22.1205 12.7775 21.6689C12.2559 21.2515 11.7659 22.119 12.0671 22.9009C12.3346 23.6548 12.9865 24.152 14.1996 24.2751C14.8384 24.4257 15.217 24.6947 15.0526 25.5074C15.2849 27.147 14.5339 29.805 15.7161 30.1989C16.711 30.1357 17.106 30.6569 16.0475 31.0519L16.7586 48.3015C16.9956 49.5023 17.2007 50.5607 17.706 51.903C19.0018 55.9785 20.2969 60.054 21.592 64.1295C22.9811 58.9415 25.5147 55.9818 29.3048 55.4696ZM10.8831 22.3626C9.6635 22.6363 8.40724 23.0972 7.12485 23.6863C7.02104 24.0642 7.03592 24.4424 7.88093 24.8206L6.93538 24.915L6.841 26.5223H8.63737L7.5499 27.4914C7.30525 27.7912 7.392 28.0903 7.52666 28.3898L8.5194 29.9735C8.86423 28.3266 9.69544 27.7201 10.8591 27.4442L10.812 26.1208H11.8994L11.9227 24.4424L10.0555 24.3952C10.3786 24.2297 10.7256 23.9462 11.0483 23.7807C11.0011 23.2686 10.9303 22.8747 10.8831 22.3626Z" fill="white"/>
<path id="Vector_6" fill-rule="evenodd" clip-rule="evenodd" d="M10.3158 33.9443L10.2918 30.0917C10.2998 29.3941 10.4258 28.8347 10.812 28.5788L12.5608 27.279C13.1524 28.0351 13.743 28.7915 14.3339 29.5476C14.7041 30.1113 14.8145 30.7178 14.8065 31.3443L14.8305 34.0387C15.9767 34.9371 15.4802 36.2529 14.7593 35.6224C13.3728 34.9447 11.9862 34.74 10.5993 35.5752C9.53465 35.8456 9.27476 34.3447 10.3158 33.9443ZM8.59018 21.7952L8.56659 20.046C11.3967 17.4093 14.727 17.703 16.8628 20.4242L16.7684 21.9603C14.1368 19.7309 11.4109 19.6758 8.59018 21.7952Z" fill="white"/>
<path id="Vector_7" fill-rule="evenodd" clip-rule="evenodd" d="M4.35934 20.613C3.80399 19.7288 3.6069 18.8188 3.93357 17.8715C5.04065 16.3905 5.06424 15.2559 4.59564 14.2787C5.92159 13.6247 6.48493 16.0479 7.81015 12.4348C9.49981 12.6878 10.6109 13.8678 11.9938 12.0334C12.2301 11.5448 12.7974 11.0326 13.2704 12.0566C13.8294 13.0101 14.8853 13.3488 16.2958 12.506C17.6562 11.5865 17.9818 12.5637 18.0918 13.5459C17.8875 14.9012 19.5259 14.6018 20.8105 14.2787C19.7542 15.4526 22.3862 18.4232 21.1176 20.5658C20.1662 13.8315 5.29473 13.8907 4.35898 20.613H4.35934ZM8.66097 9.62212C7.51651 6.6047 9.0254 4.50126 10.9539 3.78402C13.6091 2.7597 16.1459 5.58801 19.1321 3.12231C19.2664 3.8156 19.1477 4.50888 18.7778 5.20217C21.2885 6.23519 23.5147 5.9263 25.3956 3.99672C26.1107 9.00651 18.4628 7.74154 17.7375 11.0167C17.3593 10.7172 16.9815 10.4178 16.6029 10.1187C15.3974 11.3165 14.3495 11.2218 13.4595 9.83519C13.1582 9.45987 12.6261 9.39272 11.9434 9.62357C11.2131 9.8704 11.017 10.3488 10.4127 10.7343C9.82104 11.1118 9.22576 10.9604 8.66097 9.62212Z" fill="white"/>
</g>
<g id="Group_3">
<path id="Vector_8" fill-rule="evenodd" clip-rule="evenodd" d="M77.7984 28.3956V27.0878C80.4667 27.2141 82.5476 27.2801 84.0365 27.2801C85.557 27.2801 87.585 27.2141 90.1196 27.0878V28.3956C87.969 28.7575 86.8057 28.9923 86.6136 29.1008C86.3044 29.3001 86.1498 29.8123 86.1498 30.638L86.1015 35.1767V49.8656H91.7897C92.7291 49.8656 93.3534 49.7995 93.6681 49.6547C94.0949 49.4558 94.5058 49.0943 94.9007 48.5759C95.2957 48.0572 95.9948 46.858 96.9977 44.9774H98.4013C97.7076 47.1534 97.0245 49.5462 96.3577 52.144C91.9287 52.0177 88.2416 51.9512 85.3008 51.9512C82.8946 51.9512 80.3919 52.0177 77.7984 52.144V50.8362C79.6554 50.4264 80.6746 50.1433 80.8612 49.9923C81.0481 49.8355 81.1657 49.5523 81.2137 49.1364C81.2616 48.7146 81.283 45.8935 81.283 40.6678L81.2666 34.2424V33.1092C81.2666 31.2286 81.2137 30.0954 81.0964 29.7219C81.0162 29.4388 80.8721 29.2391 80.6692 29.1252C80.4666 29.0166 79.5059 28.7694 77.7984 28.3956Z" fill="#2F3A56"/>
<path id="Vector_9" fill-rule="evenodd" clip-rule="evenodd" d="M97.5036 38.2991V37.0272C100.174 36.5571 102.483 35.7433 104.429 34.5738L105.328 35.0504C105.165 36.4787 105.056 37.7502 105.008 38.8657C104.93 40.523 104.887 43.1509 104.887 46.7433C104.887 48.2504 104.941 49.209 105.044 49.6184C105.117 49.89 105.255 50.095 105.46 50.2275C105.665 50.3662 106.37 50.589 107.569 50.9085V52.144C105.936 52.0177 104.442 51.9513 103.085 51.9513C101.789 51.9513 99.9029 52.0177 97.4129 52.144V50.9085L97.8771 50.8061C98.9142 50.5651 99.5229 50.3662 99.7098 50.1912C99.9029 50.0224 100.017 49.7212 100.066 49.2871C100.174 48.1658 100.222 45.8573 100.222 42.3615C100.222 40.3361 100.174 39.1611 100.066 38.8294C99.9207 38.3952 99.5889 38.1782 99.0586 38.1782C98.6006 38.1782 98.0822 38.2206 97.5036 38.2991ZM102.627 26.437C103.417 26.437 104.085 26.714 104.646 27.2744C105.207 27.8352 105.484 28.5042 105.484 29.294C105.484 30.0835 105.207 30.7582 104.646 31.319C104.085 31.8737 103.417 32.1568 102.627 32.1568C101.838 32.1568 101.162 31.8737 100.602 31.319C100.047 30.7586 99.7639 30.0835 99.7639 29.2936C99.7639 28.5042 100.041 27.8352 100.596 27.2744C101.15 26.714 101.825 26.437 102.627 26.437ZM114.92 49.5825C115.835 50.0344 116.678 50.2577 117.448 50.2577C118.595 50.2577 119.478 49.89 120.088 49.1607C120.957 48.1237 121.389 46.5143 121.389 44.3205C121.389 42.0722 120.971 40.3905 120.128 39.2693C119.571 38.552 118.841 38.1967 117.932 38.1967C117.089 38.1967 116.379 38.5339 115.795 39.209C115.212 39.8903 114.92 41.0174 114.92 42.5905V49.5825ZM106.792 29.9325V28.6969C109.346 28.1909 111.907 27.3528 114.468 26.1898L115.424 26.7321C115.072 28.9379 114.9 32.127 114.9 36.3038C114.9 36.6958 114.906 37.2624 114.92 38.0156C116.525 36.5931 117.7 35.6951 118.436 35.3277C119.17 34.9552 119.982 34.7628 120.805 34.7666C122.457 34.7666 123.85 35.3815 124.985 36.605C126.126 37.8286 126.697 39.6493 126.697 42.0602C126.697 45.1586 125.608 47.6842 123.432 49.637C121.256 51.5898 118.456 52.5723 115.032 52.5723C113.36 52.5723 111.576 52.2286 109.671 51.5477C109.784 48.2384 109.844 44.1455 109.844 39.2693C109.844 33.8326 109.804 30.9695 109.731 30.674C109.598 30.0954 109.18 29.8065 108.464 29.8065C108.138 29.8065 107.581 29.8483 106.792 29.9325ZM133.468 40.3843C134.18 40.4087 134.768 40.4206 135.232 40.4206C136.33 40.4206 137.669 40.3724 139.249 40.2758C139.171 38.7811 138.903 37.7865 138.433 37.2925C137.969 36.7981 137.329 36.551 136.512 36.551C135.722 36.551 135.043 36.8464 134.481 37.437C133.919 38.0217 133.586 39.0101 133.468 40.3843ZM143.365 47.3586L144.358 48.7027C142.353 50.2696 140.51 51.4028 138.825 52.1081C138.1 52.4155 137.166 52.5723 136.036 52.5723C133.658 52.5723 131.848 51.9212 130.6 50.6253C129.013 49.0039 128.223 46.8337 128.223 44.1274C128.223 41.3128 129.13 39.0283 130.94 37.2744C132.756 35.5201 134.997 34.6464 137.682 34.6464C140.132 34.6464 141.921 35.3277 143.058 36.6958C143.809 37.5876 144.24 38.9862 144.358 40.8787C143.726 41.265 143.131 41.709 142.581 42.205C141.235 42.1564 139.87 42.1324 138.485 42.1324C136.669 42.1324 134.984 42.1564 133.429 42.205C133.417 42.4217 133.411 42.6385 133.41 42.8555C133.41 44.5194 133.821 45.9778 134.644 47.2377C135.467 48.4972 136.702 49.1244 138.348 49.1244C139.152 49.1244 139.922 49.0039 140.654 48.7567C141.386 48.5096 142.294 48.0453 143.365 47.3586ZM145.081 38.4254V37.1898C148.2 36.551 150.689 35.7491 152.548 34.7851L153.448 35.2609C153.236 36.5027 153.113 37.8591 153.075 39.3415C154.355 37.4609 155.3 36.298 155.911 35.8638C156.516 35.4301 157.236 35.213 158.065 35.213C158.631 35.213 159.255 35.3517 159.93 35.6348C159.538 37.1404 159.235 38.6681 159.024 40.2098H157.744C157.68 39.7397 157.519 39.3902 157.255 39.1669C156.992 38.9441 156.676 38.8294 156.316 38.8294C155.763 38.8294 155.242 39.0704 154.747 39.5528C154.007 40.2943 153.493 41.2105 153.204 42.2892C153.056 42.8439 152.978 43.796 152.978 45.1524C152.978 47.5451 153.004 48.9197 153.056 49.2871C153.107 49.6489 153.242 49.9201 153.467 50.0947C153.692 50.2754 154.393 50.4867 155.558 50.7335C155.725 50.7698 155.969 50.8243 156.297 50.9085V52.1444C153.911 52.0177 151.982 51.9513 150.509 51.9513C148.927 51.9513 147.12 52.0177 145.081 52.1444V50.9085C146.592 50.6134 147.448 50.2878 147.647 49.9201C147.937 49.4137 148.078 46.9967 148.078 42.6631C148.078 40.3662 147.988 39.0646 147.795 38.751C147.609 38.4377 147.268 38.2809 146.779 38.2809C146.406 38.2809 145.84 38.3292 145.081 38.4254ZM173.325 36.0624L173.531 36.2148C173.157 36.8718 174.22 36.6776 173.924 37.3887C172.665 37.2562 168.892 37.4976 167.433 37.4373L167.379 39.535L167.325 41.9582L167.27 44.3571C167.27 46.6054 167.457 48.0155 167.831 48.5883C168.198 49.1611 168.687 49.4442 169.284 49.4442C169.742 49.4442 170.483 49.221 171.507 48.7749L172.146 50.0471C170.368 51.1139 169.187 51.7586 168.596 51.9698C167.807 52.2533 167.053 52.3916 166.336 52.3916C165.239 52.3916 164.365 52.0478 163.714 51.3488C163.063 50.6558 162.731 49.6312 162.731 48.2809L162.804 44.1999L162.942 37.4373L161.514 37.4011C161.387 37.4011 161.019 37.413 160.423 37.4373V36.1292C161.55 35.7314 162.587 35.0744 163.539 34.1702C164.485 33.2602 165.444 31.9223 166.408 30.1441H167.963C167.656 32.0969 167.475 34.306 167.433 35.8733C169.278 35.9165 171.46 36.0914 173.325 36.0624Z" fill="#2F3A56"/>
<path id="Vector_10" fill-rule="evenodd" clip-rule="evenodd" d="M171.352 37.2496L171.423 35.9916C173.562 36.1157 175.362 36.0155 176.525 36.0155C177.737 36.0155 179.34 35.9502 181.329 35.8264V37.0366C181.142 37.0663 180.997 37.0899 180.907 37.1019C180.19 37.2195 179.744 37.3437 179.581 37.4736C179.419 37.6094 179.334 37.7803 179.334 37.9872C179.334 38.1582 179.461 38.536 179.708 39.1266L182.354 45.5974L184.457 39.5103C184.681 38.8493 184.789 38.3593 184.789 38.0402C184.789 37.8395 184.717 37.6682 184.56 37.5266C184.409 37.385 184.005 37.2195 183.36 37.0366V35.8264C184.705 35.9502 185.802 36.0152 186.664 36.0152C187.592 36.0152 188.556 35.9502 189.557 35.8264V37.0366C188.677 37.3081 188.104 37.5502 187.845 37.7629C187.586 37.9694 187.315 38.3887 187.025 39.0141C186.736 39.6402 185.838 41.9723 184.331 45.9926C182.438 51.0699 181.211 54.1821 180.642 55.3327C179.842 56.9509 177.742 61.7349 176.812 62.3589C175.437 63.2815 173.479 63.5396 171.842 63.242L172.178 58.9523C173.66 60.1175 174.975 60.1269 177.215 58.4456C177.882 57.9451 179.328 53.6914 180.057 51.6841L175.024 40.5259C174.403 39.1208 173.933 38.2761 173.614 37.993C173.294 37.7095 173.204 37.2021 171.352 37.2496ZM91.7109 73.9247H90.1472C89.8006 71.8249 89.283 70.4198 88.5839 69.7029C87.8848 68.9861 86.9352 68.6278 85.7396 68.6278C84.6619 68.6278 83.8293 68.9189 83.2264 69.5069C82.6289 70.0891 82.3302 70.8394 82.3302 71.7465C82.3302 72.5527 82.6075 73.2862 83.157 73.9414C83.712 74.6133 85.0249 75.4365 87.0953 76.422C89.1708 77.4075 90.622 78.443 91.4441 79.5349C92.2659 80.6434 92.6768 82.0096 92.6768 83.639C92.6768 85.6042 91.9723 87.3287 90.5581 88.8125C89.1494 90.2964 86.8659 91.035 83.7225 91.035C82.5966 91.035 81.5294 90.9457 80.5316 90.7722C79.7686 90.6546 78.8296 90.4027 77.7037 90.0165C77.8797 88.096 77.9701 86.1976 77.9701 84.328V83.2303H79.5019C79.8968 85.4027 80.3875 86.8586 80.9694 87.5918C81.7483 88.5882 82.8369 89.0815 84.2191 89.0815C85.3236 89.0815 86.2093 88.7396 86.8764 88.051C87.5432 87.3624 87.8793 86.4833 87.8793 85.4085C87.8793 84.7309 87.741 84.1316 87.4634 83.6053C87.1915 83.0793 86.7748 82.6031 86.2303 82.1777C85.6808 81.7519 84.6884 81.1868 83.2529 80.4866C81.0438 79.3948 79.5607 78.3421 78.8137 77.3233C78.0612 76.3156 77.6873 75.1283 77.6873 73.7621C77.6873 71.7523 78.3973 70.0837 79.8111 68.7621C81.2307 67.4354 83.2746 66.7744 85.9425 66.7744C87.7142 66.7744 89.6351 67.1331 91.7109 67.8438C91.6467 69.5574 91.6147 70.7501 91.6147 71.4162C91.6147 72.1944 91.6467 73.0289 91.7109 73.9247ZM98.7385 80.0597C99.3871 80.0811 99.9222 80.0917 100.345 80.0917C101.344 80.0917 102.564 80.0488 104.003 79.9628C103.932 78.6292 103.688 77.7421 103.26 77.3007C102.838 76.8597 102.255 76.6394 101.511 76.6394C100.791 76.6394 100.172 76.9029 99.6604 77.43C99.149 77.9516 98.8456 78.8336 98.7385 80.0597ZM107.752 86.2811L108.656 87.4808C106.83 88.8786 105.152 89.8895 103.617 90.5192C102.957 90.7933 102.106 90.933 101.076 90.933C98.9109 90.933 97.263 90.3523 96.1265 89.1958C94.6808 87.7494 93.961 85.8136 93.961 83.3987C93.961 80.888 94.7882 78.8496 96.4358 77.2848C98.0898 75.72 100.131 74.94 102.576 74.94C104.807 74.94 106.437 75.5479 107.472 76.7686C108.156 77.5643 108.549 78.8118 108.656 80.5007C108.082 80.8445 107.54 81.2405 107.038 81.6837C105.795 81.6402 104.551 81.6187 103.307 81.6191C101.654 81.6191 100.119 81.6405 98.7029 81.6837C98.692 81.877 98.686 82.0705 98.6848 82.2641C98.6848 83.7483 99.0597 85.0499 99.8093 86.1737C100.559 87.2978 101.683 87.8572 103.182 87.8572C103.915 87.8572 104.617 87.7494 105.283 87.529C105.949 87.3083 106.776 86.8946 107.752 86.2811ZM115.53 94.1584C114.365 95.0474 113.782 95.9054 113.782 96.7261C113.782 97.2891 114.13 97.8216 114.814 98.3414C115.498 98.855 116.543 99.1116 117.943 99.1116C119.811 99.1116 121.274 98.7798 122.332 98.116C123.39 97.4586 123.916 96.7072 123.916 95.8619C123.916 95.3483 123.732 94.9664 123.358 94.7221C122.877 94.3965 121.882 94.2274 120.369 94.2274L118.069 94.2648C117.664 94.2648 116.816 94.2274 115.53 94.1584ZM116.271 81.0775C116.271 82.9374 116.6 84.3399 117.252 85.2982C117.639 85.8554 118.171 86.137 118.849 86.137C119.419 86.137 119.913 85.8488 120.324 85.2666C120.742 84.684 120.945 83.5947 120.945 81.9918C120.945 80.1069 120.647 78.7356 120.058 77.8652C119.672 77.3142 119.14 77.0387 118.462 77.0387C117.854 77.0387 117.335 77.3331 116.91 77.9091C116.486 78.4913 116.271 79.5497 116.271 81.0775ZM128.222 75.9051L128.406 76.2496C127.996 76.9192 127.636 77.6183 127.329 78.341C126.526 78.1948 125.713 78.1153 124.897 78.1033C125.53 79.2053 125.847 80.2822 125.847 81.3341C125.847 82.4927 125.549 83.557 124.967 84.5214C124.378 85.492 123.485 86.2623 122.294 86.8383C121.097 87.4082 119.843 87.6964 118.532 87.6964C118.253 87.6964 117.911 87.6775 117.512 87.6463C117.06 87.6021 116.608 87.5518 116.157 87.4956C115.378 88.1907 114.991 88.7421 114.991 89.149C114.991 89.3682 115.131 89.5497 115.416 89.7C115.865 89.9316 116.961 90.0445 118.722 90.0445L121.781 90.0067C124.283 90.0067 125.929 90.3327 126.734 90.9835C127.538 91.6285 127.944 92.6118 127.944 93.933C127.944 95.2419 127.544 96.4441 126.753 97.5337C125.961 98.6169 124.701 99.4934 122.959 100.157C121.224 100.815 119.184 101.147 116.847 101.147C114.288 101.147 112.357 100.689 111.058 99.7878C110.153 99.149 109.703 98.3726 109.703 97.4586C109.703 97.0887 109.785 96.7824 109.944 96.5377C110.102 96.2938 110.431 96.0183 110.925 95.7178C111.964 95.0789 112.869 94.459 113.636 93.8641C112.699 93.5323 112.034 93.1189 111.641 92.6118C111.255 92.1109 111.058 91.5348 111.058 90.871C111.058 90.4826 111.109 90.1886 111.217 89.9944C111.318 89.794 111.546 89.5559 111.894 89.2742C113.167 88.2848 114.086 87.5334 114.656 87.0201C113.604 86.5192 112.844 85.9367 112.376 85.2793C111.704 84.3461 111.375 83.2191 111.375 81.904C111.375 80.0067 112.021 78.4601 113.32 77.2579C114.618 76.0619 116.461 75.4605 118.849 75.4605C119.444 75.4605 120.039 75.5167 120.641 75.6296C121.243 75.7363 121.844 75.9051 122.452 76.1243C123.833 76.1494 124.561 76.1617 124.618 76.1617C125.847 76.1617 127.044 76.0742 128.222 75.9051ZM149.675 88.0735V89.2728C147.931 89.4771 146.541 89.7036 145.504 89.9414C144.456 90.1899 143.426 90.5075 142.419 90.892L141.569 90.4056C141.712 89.6597 141.824 88.8858 141.892 88.0735C140.353 89.3388 139.279 90.1073 138.677 90.3893C138.069 90.671 137.367 90.8092 136.566 90.8092C135.642 90.8092 134.853 90.6601 134.196 90.3671C133.532 90.0684 133.041 89.6927 132.712 89.2343C132.383 88.7751 132.172 88.1726 132.073 87.4267C132.023 86.9515 132.005 85.7189 132.005 83.7345L132.017 80.5124C132.017 78.7436 131.887 77.7102 131.62 77.4173C131.353 77.1301 130.515 76.9309 129.112 76.8202V75.737C131.874 75.549 134.258 75.1955 136.256 74.6648L137.094 75.1345C136.995 75.6761 136.92 76.4721 136.858 77.5334C136.759 79.4459 136.709 81.1203 136.709 82.5683C136.709 84.8013 136.877 86.2437 137.212 86.8906C137.547 87.537 138.174 87.8633 139.093 87.8633C139.819 87.8633 140.44 87.6586 140.955 87.2499C141.47 86.8354 141.811 86.2107 141.967 85.3704C142.078 84.8401 142.128 83.1432 142.128 80.2692C142.128 78.5944 142.016 77.6387 141.793 77.3951C141.569 77.1519 140.725 76.9585 139.254 76.8202V75.737C141.365 75.549 142.873 75.389 143.785 75.2398C144.686 75.0964 145.58 74.9044 146.46 74.6648L147.31 75.1182C147.13 76.0909 147.012 77.0085 146.969 77.8703C146.87 79.3076 146.82 81.4742 146.82 84.3646C146.82 86.2659 146.882 87.3381 147.006 87.5871C147.162 87.9352 147.54 88.1065 148.149 88.1065H148.347C148.651 88.0956 149.092 88.0844 149.675 88.0735ZM149.97 77.0086V75.8263C152.82 75.2151 155.094 74.4481 156.792 73.5258L157.615 73.981C157.421 75.169 157.309 76.4666 157.274 77.8851C158.444 76.0859 159.308 74.973 159.866 74.5577C160.418 74.1425 161.076 73.9349 161.834 73.9349C162.351 73.9349 162.921 74.0677 163.538 74.3389C163.179 75.7807 162.903 77.2419 162.71 78.7153H161.541C161.482 78.2655 161.335 77.9309 161.094 77.7178C160.859 77.506 160.552 77.3906 160.236 77.3948C159.73 77.3948 159.255 77.6256 158.802 78.087C158.126 78.7962 157.656 79.6724 157.392 80.7047C157.257 81.2354 157.186 82.1461 157.186 83.4434C157.186 85.733 157.21 87.0477 157.257 87.3991C157.304 87.7454 157.427 88.0049 157.633 88.1719C157.838 88.345 158.479 88.5468 159.542 88.7831C159.769 88.8343 159.994 88.8901 160.218 88.9505V90.1327C158.038 90.0114 156.276 89.9479 154.93 89.9479C153.484 89.9479 151.833 90.0114 149.97 90.1327V88.9505C151.351 88.6681 152.133 88.3566 152.315 88.0049C152.579 87.5207 152.709 85.2082 152.709 81.0619C152.709 78.8655 152.626 77.6198 152.45 77.3196C152.28 77.0202 151.968 76.8703 151.521 76.8703C151.18 76.8703 150.664 76.916 149.97 77.0086ZM169.954 81.8655C169.954 84.8793 170.415 87.0474 171.336 88.3755C171.862 89.1388 172.616 89.5174 173.597 89.5174C174.5 89.5174 175.194 89.1936 175.685 88.5403C176.384 87.6071 176.737 85.9936 176.737 83.6989C176.737 80.773 176.295 78.6928 175.421 77.4579C174.883 76.6837 174.13 76.2993 173.16 76.2993C172.251 76.2993 171.539 76.6343 171.025 77.2986C170.307 78.2096 169.954 79.7301 169.954 81.8655ZM164.715 82.7163C164.715 80.3338 165.516 78.4129 167.125 76.9527C168.728 75.487 170.864 74.757 173.531 74.757C176.169 74.757 178.233 75.4321 179.722 76.7933C181.211 78.1494 181.959 80.0154 181.959 82.3926C181.959 85.137 181.163 87.2724 179.584 88.7984C178 90.3189 175.864 91.0822 173.179 91.0822C170.469 91.0822 168.382 90.3737 166.916 88.9577C165.444 87.5414 164.715 85.4608 164.715 82.7163ZM183.695 85.4013H185.199C185.484 86.8358 185.969 87.8564 186.641 88.4619C187.313 89.0677 188.094 89.3759 188.988 89.3759C189.667 89.3759 190.202 89.206 190.595 88.8659C190.994 88.5312 191.188 88.1163 191.188 87.6278C191.188 87.1813 190.994 86.7508 190.607 86.3367C190.213 85.9218 189.222 85.284 187.627 84.4234C186.031 83.5628 184.966 82.7762 184.43 82.075C183.883 81.3683 183.61 80.5766 183.61 79.7051C183.61 78.4296 184.162 77.3458 185.262 76.4586C186.367 75.5712 187.946 75.1298 190.003 75.1298C191.484 75.1298 193.005 75.4383 194.561 76.0652C194.419 76.634 194.253 77.9356 194.077 79.9708L192.624 79.9229C192.39 78.6902 191.991 77.8187 191.433 77.3087C190.869 76.7988 190.213 76.5432 189.473 76.5432C188.857 76.5432 188.384 76.6924 188.042 76.9897C187.706 77.2873 187.535 77.6645 187.535 78.132C187.535 78.5414 187.684 78.908 187.986 79.2372C188.396 79.6946 189.313 80.3004 190.738 81.0441C192.533 81.99 193.701 82.8031 194.242 83.4884C194.789 84.1737 195.062 84.9759 195.062 85.9007C195.062 87.1599 194.55 88.3076 193.524 89.3599C192.504 90.4067 190.738 90.9327 188.236 90.9327C186.789 90.9327 185.199 90.6935 183.461 90.2154C183.604 88.3875 183.684 86.7828 183.695 85.4013ZM78.0812 58.4188H168.096V60.128H78.0812V58.4188ZM181.769 58.4188H200V60.128H181.769V58.4188Z" fill="#2F3A56"/>
</g>
</g>
</g>
<defs>
<clipPath id="clip0_159_57">
<rect width="200" height="101.68" fill="white"/>
</clipPath>
</defs>
</svg>
