<svg width="200" height="25" viewBox="0 0 200 25" fill="none" xmlns="http://www.w3.org/2000/svg">
<g id="mapfre-logo 1" clip-path="url(#clip0_159_55)">
<path id="Vector" d="M44.8232 12.12L38.9067 0.00522549H29.9592V24.2348H38.9067V12.12L44.8232 24.2348L50.7395 12.12V24.2348H59.6873V0.00501647H50.7395L44.8232 12.12ZM69.5179 0.00522549L62.5581 24.2348H71.5058L72.6477 20.2586H82.1964L83.3384 24.2346H92.2861L85.3264 0.00522549H69.5179ZM73.7898 16.2826L77.4221 3.63401L81.0543 16.2826H73.7898ZM111.882 0.0158855H95.1376V24.2346H104.082V14.1431H111.882C115.782 14.1431 118.944 10.9796 118.944 7.07949C118.944 3.1794 115.782 0.0158855 111.882 0.0158855ZM106.175 10.0405H104.235V2.78958H106.175C108.192 2.78958 110.151 3.87 110.151 6.06596C110.151 8.26192 108.422 10.04 106.175 10.04M122.048 24.2346H130.994V14.1201H145.833V10.1425H130.993V3.98099H145.833V0.00522549H122.048V24.2346ZM199.915 3.98099V0.00522549H176.127V24.2348H199.915V20.2584H185.074V14.1203H199.915V10.1427H185.074V3.98099H199.915ZM172.769 6.06784C172.769 2.72457 170.057 0.0123322 166.714 0.0123322H148.965V24.2346H158.06V14.205H159.999C162.193 14.205 163.975 15.985 163.975 18.1793C163.975 18.2445 163.973 18.3097 163.97 18.3749V24.2348H172.769V18.1791C172.769 18.1122 172.771 18.047 172.769 17.9799C172.663 14.7284 169.99 12.1236 166.714 12.1236C170.057 12.1236 172.769 9.41299 172.769 6.06784ZM159.999 10.0438H158.06V2.79501H159.999C161.966 2.79501 163.975 3.87188 163.975 6.06784C163.975 8.2638 162.195 10.0438 159.999 10.0438ZM12.2049 0C5.51105 0 0.0848999 5.42636 0.0848999 12.12C0.0848999 12.6346 0.118343 13.1404 0.180004 13.6375C0.927249 19.6154 6.02586 24.24 12.2049 24.24C18.3837 24.24 23.4842 19.6136 24.2298 13.6373L23.0647 13.6408C22.3246 18.9775 17.7441 23.0856 12.2049 23.0856C6.66567 23.0856 2.08522 18.9775 1.34508 13.6373H1.3432C1.27374 13.1344 1.23903 12.6274 1.23931 12.1198C1.23931 6.06449 6.14918 1.15442 12.2049 1.15442C18.2604 1.15442 23.1705 6.06428 23.1705 12.12C23.1705 12.6363 23.1335 13.144 23.0647 13.6375H24.2296C24.2931 13.1404 24.3249 12.6346 24.3249 12.12C24.3249 5.42615 18.8983 0 12.2049 0ZM20.2131 12.6028C20.2131 12.5077 20.2026 12.4248 20.1901 12.3579C20.0454 11.5527 19.7622 10.7788 19.3532 10.0704C18.9301 9.33879 18.3062 8.64108 17.6929 8.12647C17.4897 7.97151 17.2549 7.86321 17.0051 7.80928C16.7554 7.75534 16.4968 7.75709 16.2478 7.81441C16.054 7.25402 15.5939 6.78519 15.0775 6.55966C14.1566 6.22558 13.1845 6.05496 12.2049 6.05551C11.2037 6.05551 10.2397 6.23171 9.34635 6.55611C9.27946 6.58077 9.19648 6.61422 9.11016 6.66354C8.88014 6.78389 8.6766 6.94915 8.51159 7.14956C8.34658 7.34997 8.22346 7.58145 8.1495 7.83029C7.61734 7.73519 7.04107 7.8884 6.62868 8.19336C5.99928 8.72262 5.46726 9.35785 5.05664 10.0704C4.64676 10.7784 4.36347 11.5525 4.21952 12.3579C4.20697 12.4248 4.19652 12.5077 4.19652 12.6028C4.18302 12.9677 4.27944 13.3281 4.47327 13.6375H4.47494C4.62975 13.8817 4.84138 14.0849 5.09175 14.2296C5.39114 14.4019 5.73375 14.4845 6.07875 14.4675L10.0213 14.457C10.3014 14.4675 11.0434 14.4692 11.6109 14.4692V18.1826H12.7987V14.4692C13.3681 14.4692 14.1082 14.4675 14.3885 14.4568L18.3308 14.4673C18.6758 14.4844 19.0184 14.4019 19.3178 14.2296C19.5692 14.0854 19.7815 13.8821 19.9365 13.6373C20.1302 13.3279 20.2266 12.9676 20.2131 12.6028ZM10.3369 13.1191C10.308 13.1686 10.2656 13.2088 10.2147 13.235C10.1638 13.2613 10.1065 13.2725 10.0495 13.2673L6.0384 13.2778C5.91547 13.2889 5.79215 13.2612 5.68579 13.1985C5.58666 13.1413 5.50586 13.0571 5.45282 12.9557C5.39978 12.8543 5.3767 12.7399 5.38626 12.6258C5.50603 11.9156 5.73512 11.2722 6.08585 10.6642C6.42765 10.0722 6.87017 9.54433 7.39348 9.10447L7.41292 9.08859C7.50776 9.01648 7.62186 8.97414 7.74078 8.96692C7.85969 8.95971 7.97808 8.98794 8.08094 9.04804C8.19381 9.11325 8.27826 9.21024 8.32926 9.32123L10.3262 12.802C10.3879 12.8936 10.3948 13.0171 10.3367 13.1193M12.2049 13.2813C12.1346 13.2812 12.0658 13.2611 12.0065 13.2234C11.9472 13.1856 11.8999 13.1318 11.8701 13.0681L9.39212 8.80307C9.30626 8.67805 9.26014 8.53001 9.25981 8.37834C9.25981 8.08049 9.43435 7.82507 9.68621 7.7053C10.5164 7.39678 11.3431 7.24524 12.2049 7.24524C13.0702 7.24524 13.9021 7.39846 14.6705 7.67687L14.6987 7.68941C14.8336 7.7462 14.9487 7.84156 15.0296 7.96353C15.1105 8.0855 15.1535 8.22865 15.1533 8.375C15.1539 8.53058 15.1052 8.68235 15.0141 8.8085L12.5362 13.0752C12.5054 13.1368 12.4581 13.1887 12.3997 13.2251C12.3412 13.2614 12.2738 13.2809 12.2049 13.2813ZM18.724 13.1985C18.6177 13.2612 18.4943 13.289 18.3714 13.278L14.3603 13.2673C14.2474 13.2778 14.1329 13.2232 14.0729 13.1193C14.0451 13.0707 14.0313 13.0152 14.0332 12.9592C14.0351 12.9031 14.0525 12.8487 14.0836 12.802L16.0803 9.32123C16.1315 9.21024 16.2162 9.11325 16.3289 9.04804C16.4317 8.98788 16.5501 8.95962 16.669 8.96684C16.788 8.97406 16.9021 9.01643 16.9969 9.08859L17.0161 9.10447C17.54 9.54383 17.9826 10.0717 18.3239 10.6642C18.673 11.2724 18.9038 11.9156 19.0235 12.6258C19.0331 12.7399 19.01 12.8543 18.957 12.9557C18.9039 13.0571 18.8231 13.1413 18.724 13.1985Z" fill="#E20025"/>
</g>
<defs>
<clipPath id="clip0_159_55">
<rect width="200" height="24.24" fill="white"/>
</clipPath>
</defs>
</svg>
