<svg width="200" height="44" viewBox="0 0 200 44" fill="none" xmlns="http://www.w3.org/2000/svg">
<g id="metlife-1 1" clip-path="url(#clip0_159_48)">
<path id="Vector" d="M44.3508 0.0203964C43.5944 0.0223964 42.6102 0.251596 41.3158 0.698796C35.8528 2.5854 30.9772 5.7434 26.5204 10.2792L23.4144 13.9448L24.6118 15.6586C26.6642 18.5556 28.8114 23.4644 29.8164 27.5954C30.4332 29.9668 30.6752 31.4326 30.7764 33.8794C30.7936 34.2906 30.814 34.7244 30.824 35.2004C30.835 35.6726 30.8432 36.1818 30.848 36.7356C30.8702 39.668 30.906 43.0196 30.599 43.0196H45.2404L46.0704 42.1744C46.5868 41.4344 46.6634 38.821 46.6634 21.3586C46.6634 3.3064 46.6024 1.3156 46.0354 0.686197C45.6354 0.244196 45.1076 0.0185964 44.3508 0.0203964Z" fill="#A4CE4E"/>
<path id="Vector_2" d="M2.4068 0.020443C1.672 0.00804302 1.1374 0.207043 0.6874 0.615443C0.0322 1.21064 0 2.35664 0 21.2878C0 38.8098 0.0762 41.4344 0.593 42.1748L1.186 43.0198H15.7444C26.9836 43.0198 30.3714 42.9112 30.599 42.5438C30.761 42.2822 30.8706 39.6684 30.8478 36.7358C30.8138 32.3044 30.6398 30.7612 29.8164 27.5958C28.0146 20.6698 24.6204 14.4262 19.733 9.77264C15.4822 5.72504 10.5898 2.50964 5.347 0.698643C4.08 0.261843 3.141 0.033243 2.4066 0.020843L2.4068 0.020443Z" fill="#0192D5"/>
<path id="Vector_3" d="M23.4152 13.944L22.49 15.0638C20.8468 17.0742 17.849 23.74 16.8468 27.6078C16.0274 30.7698 15.8562 32.3098 15.8274 36.7598C15.808 39.7012 15.756 43.0202 16.0524 43.0202H30.599C30.9058 43.0202 30.8706 39.6688 30.8478 36.7362C30.8138 32.3048 30.5894 30.7746 29.8164 27.5962C28.8114 23.4648 26.669 18.5594 24.6166 15.6624L23.4152 13.944Z" fill="#0065A5"/>
<g id="Group">
<path id="Vector_4" d="M175.957 6.85206C173.911 6.85546 171.916 7.57206 170.492 8.82746C168.795 10.3227 168.173 11.5539 167.848 14.0165L167.587 15.9801H164.647V20.9311H167.682V28.2981C167.682 32.3475 167.792 35.7751 167.931 35.9149C168.07 36.0547 169.436 36.1649 170.966 36.1649H173.752V20.9309H178.304V15.9801H173.752V14.7187C173.752 12.8641 175.154 11.6621 177.048 11.8861C177.844 11.9801 178.765 12.1775 179.099 12.3263C179.548 12.5267 180.011 12.1191 180.889 10.7671L182.086 8.93406L181.232 8.29126C180.236 7.53146 177.725 6.84906 175.957 6.85206ZM158.139 6.88746C155.173 7.04206 153.693 11.5269 156.621 13.1239C158.1 13.9305 159.131 13.8119 160.439 12.7071C161.376 11.9153 161.612 11.4275 161.612 10.2317C161.612 8.55066 160.712 7.40086 159.099 6.99446C158.763 6.91046 158.446 6.87186 158.139 6.88746ZM89.1524 7.57806L86.07 7.68486L82.9994 7.79206L79.5972 14.0759C77.7264 17.5319 76.0736 20.4799 75.9338 20.6219C75.7938 20.7635 74.0628 17.8943 72.0806 14.2427L68.4766 7.60186L65.4416 7.69706L62.4066 7.79226L61.968 17.5039C61.729 22.8451 61.424 29.2293 61.2924 31.6903L61.0554 36.1651H67.0304L67.2792 31.3093C67.4152 28.6385 67.5502 24.9969 67.5756 23.2165C67.664 17.0679 67.6982 17.0713 71.1204 23.1689L74.1436 28.5483H77.3326L80.3086 22.9309L83.2726 17.3135L83.557 23.9781C83.713 27.6437 83.944 31.8857 84.067 33.4041L84.2804 36.1655H90.2912L90.2794 34.3565C90.2748 33.3617 90.026 27.4919 89.7222 21.3125C89.4182 15.1335 89.1698 9.51766 89.1648 8.82826L89.1524 7.57806ZM133.918 7.60206V21.6333C133.918 29.3485 134.028 35.7753 134.167 35.9149C134.306 36.0547 138.489 36.1649 143.462 36.1649H152.507V30.8329H140.367V7.60146H133.918V7.60206ZM117.985 10.6247V15.9447L116.372 16.0517L114.76 16.1709V20.7411L116.372 20.8603L117.985 20.9795L117.996 26.0019C118.018 32.6671 118.678 34.5339 121.517 35.9393C123.481 36.9115 127.501 36.7417 129.757 35.5939L131.63 34.6419L130.492 32.7851L129.354 30.9285L127.706 31.5357C126.175 32.0883 125.971 32.0813 125.05 31.4763C124.06 30.8245 124.054 30.7967 124.054 25.8823V20.9315H128.986V15.9805H124.09L123.971 13.4099L123.864 10.8391L120.924 10.7321L117.984 10.6247H117.985ZM103.165 15.5161C99.038 15.5421 95.78 17.6301 94.1198 21.3121C92.9778 23.8445 93.025 28.4691 94.2264 31.0591C95.242 33.2483 97.3184 35.1353 99.5732 35.9391C102.95 37.1423 108.91 36.4667 111.618 34.5701L112.65 33.8561L111.5 31.9877L110.362 30.1311L108.394 31.0473C106.297 32.0273 103.593 32.2627 101.873 31.6069C100.595 31.1185 99.0164 29.4033 99.0164 28.5007C99.0164 27.8383 99.4538 27.7867 106.035 27.7867H113.053V25.9537C113.053 19.7155 109.035 15.4791 103.165 15.5161ZM103.213 20.1457C104.383 20.1267 105.479 20.5167 106.248 21.2883C106.858 21.9007 107.362 22.7575 107.362 23.1925C107.362 23.9455 107.161 23.9781 103.189 23.9781C100.528 23.9781 99.016 23.8403 99.016 23.5855C99.016 22.6859 100.159 21.0601 101.091 20.6341C101.782 20.3179 102.511 20.1571 103.213 20.1457H103.213ZM190.172 15.5399C184.256 15.5399 180.333 19.1865 179.917 25.0849C179.573 29.9711 181.349 33.4425 185.193 35.3913C187.49 36.5563 187.768 36.6033 191.215 36.4743C194.236 36.3613 195.189 36.1617 197 35.2723C198.194 34.6863 199.17 34.0807 199.17 33.9277C199.17 33.7747 198.663 32.8491 198.044 31.8689L196.917 30.0839L195.566 30.8931C193.759 31.9631 189.858 32.2911 188.334 31.4999C186.985 30.7995 186.075 29.7945 185.726 28.6435L185.465 27.7867H199.999L199.738 25.7867C198.846 18.7993 195.805 15.5401 190.172 15.5401L190.172 15.5399ZM189.876 20.1699C191.202 20.1699 191.813 20.3975 192.685 21.2171C193.298 21.7933 193.914 22.6499 194.049 23.1211C194.293 23.9747 194.273 23.9781 189.876 23.9781C185.478 23.9781 185.458 23.9747 185.702 23.1213C185.837 22.6501 186.453 21.7933 187.066 21.2171C187.938 20.3975 188.549 20.1699 189.876 20.1699ZM161.233 15.9565L158.293 16.0635L155.353 16.1705L155.246 25.6915C155.19 30.9243 155.228 35.4229 155.329 35.6887C155.456 36.0197 156.418 36.1647 158.376 36.1647H161.233V15.9565Z" fill="black"/>
</g>
</g>
<defs>
<clipPath id="clip0_159_48">
<rect width="200" height="43.04" fill="white"/>
</clipPath>
</defs>
</svg>
