<svg width="200" height="64" viewBox="0 0 200 64" fill="none" xmlns="http://www.w3.org/2000/svg">
<g id="Frame 6">
<g id="portoseguro">
<path id="Vector" d="M196.875 0H139.395C137.677 0 136.269 1.4001 136.269 3.12455V60.6068C136.269 62.3252 137.675 63.7249 139.395 63.7249H196.875C198.592 63.7249 200 62.3252 200 60.6068V3.12455C200.002 1.4001 198.594 0 196.875 0Z" fill="#009EE2"/>
<g id="Group">
<path id="Vector_2" d="M195.734 37.9855C193.429 35.0617 187.788 34.4491 184.735 34.4491C172.011 34.4491 159.835 36.8139 148.636 41.1397C148.733 37.8201 148.637 34.4966 148.264 31.2173C156.79 28.7293 171.834 26.7303 181.736 27.5973C190.986 28.4088 194.471 33.5642 195.734 37.9855Z" fill="white"/>
<path id="Vector_3" d="M191.593 29.5446C189.013 27.1224 187.047 25.3759 179.224 24.2443C171.404 23.1187 154.859 24.8211 147.536 26.6646C147.011 23.7724 146.305 20.9161 145.422 18.1127C150.524 17.2169 155.695 16.767 160.875 16.7681C165.996 16.7681 171.026 17.2054 175.909 18.0389C186.253 19.8109 189.544 25.6048 191.593 29.5446Z" fill="white"/>
<path id="Vector_4" d="M139.815 5.4358C166.45 4.74374 181.412 16.4042 184.391 19.6162C181.798 17.4545 176.794 15.6125 172.484 14.7813C167.188 13.7649 161.72 13.236 156.106 13.236C152.003 13.236 147.96 13.5223 144.01 14.0794C143.003 11.4518 141.138 7.92381 139.815 5.4358ZM191.593 54.865C195.877 46.0127 194.873 44.4651 186.459 45.4895C173.383 47.0866 156.899 52.685 144.447 59.4095C146.718 55.0137 147.826 50.5887 148.264 46.5972C160.286 41.3189 173.514 38.2799 187.42 38.0053C201.979 37.7171 196.515 48.8544 191.593 54.865Z" fill="white"/>
</g>
<path id="Vector_5" d="M83.2935 37.2892C85.0956 37.0268 87.7767 36.828 90.7556 36.828C94.4331 36.828 97.0028 37.3249 98.771 38.568C100.239 39.6221 101.05 41.8378 101.05 43.8763C101.05 46.6986 99.2285 48.7113 97.0983 49.4014V49.4988C98.1561 50.9746 104.485 59.1051 104.485 59.1051H98.2976L91.6489 50.4156H88.8464V59.1051H83.2935V37.2892ZM88.8464 46.8077H91.0481C93.8445 46.8077 95.497 45.5628 95.497 43.6197C95.497 41.5872 93.9521 40.5708 91.3804 40.537C90.0218 40.537 89.2464 40.6343 88.8445 40.6963V46.8077H88.8464ZM1.13772 53.9736C2.64923 54.6638 4.96422 55.3463 7.35488 55.3463C9.93034 55.3463 11.2905 54.3957 11.2905 52.9553C11.2905 51.5731 10.1174 50.7818 7.13015 49.8311C3.01313 48.55 0.328159 46.5195 0.328159 43.2957C0.328159 39.5148 3.85654 36.6249 9.70371 36.6249C12.5001 36.6249 14.5626 37.1561 16.0384 37.7466L14.7873 41.7842C13.7949 41.3583 12.0286 40.732 9.59647 40.732C7.17197 40.732 5.99053 41.7207 5.99053 42.866C5.99053 44.2859 7.39252 44.9046 10.5927 45.9864C14.9763 47.4382 17.0346 49.4668 17.0346 52.5914C17.0346 56.2989 13.8344 59.4907 7.02862 59.4907C4.19268 59.4907 1.39819 58.8025 0 58.1104L1.13772 53.9736ZM33.7407 49.7653H24.6123V55.0239H34.805V59.1268H18.9819V36.9888H34.2902V41.094H24.6165V45.694H33.743V49.7653H33.7407ZM57.51 58.1108C55.7799 58.6393 52.5059 59.3595 49.2281 59.3595C44.7038 59.3595 41.4298 58.3374 39.1449 56.3704C36.8615 54.4653 35.6104 51.5754 35.6484 48.3314C35.688 40.9685 41.6827 36.7584 49.8167 36.7584C53.0169 36.7584 55.4814 37.3151 56.6986 37.8482L55.5232 41.8515C54.1607 41.3286 52.4682 40.8971 49.7433 40.8971C45.0757 40.8971 41.5413 43.2638 41.5413 48.061C41.5413 52.6252 44.7415 55.3224 49.3399 55.3224C50.6267 55.3224 51.6587 55.1908 52.1005 54.9942V50.362L52.1161 46.456H57.5081V58.1108H57.51ZM65.6402 36.9907V49.7357C65.6402 53.542 67.2594 55.4813 70.1272 55.4813C73.0727 55.4813 74.6918 53.6496 74.6918 49.7357V36.9907H80.2846V49.4075C80.2846 56.243 76.4201 59.4907 69.9443 59.4907C63.6873 59.4907 60.006 56.4023 60.006 49.3417V36.9949H65.6383V36.9911L65.6402 36.9907ZM126.374 47.834C126.374 55.0855 121.444 59.4907 114.195 59.4907C106.834 59.4907 102.532 54.5307 102.532 48.2238C102.532 41.591 107.279 36.6249 114.6 36.6249C122.219 36.6268 126.374 41.7203 126.374 47.834ZM108.457 48.1226C108.457 52.4644 110.738 55.519 114.489 55.519C118.28 55.519 120.451 52.299 120.451 47.9991C120.451 44.0197 118.32 40.5966 114.451 40.5966C110.664 40.6005 108.457 43.8227 108.457 48.1226ZM19.5941 6.26313C17.6054 4.83717 14.636 4.14511 10.5152 4.14511C6.94724 4.14511 3.92993 4.32002 1.52368 4.67784V30.8074H7.81042V21.1375L8.08078 21.1775C8.68539 21.255 9.48088 21.2968 10.3718 21.2968C14.5246 21.2968 17.8681 20.334 20.028 18.5122C21.7619 17.0467 22.7168 14.8352 22.7168 12.3031C22.7229 9.86261 21.5851 7.66132 19.5941 6.26313ZM10.3342 17.1042C9.25615 17.1042 8.56218 17.0505 8.00131 16.9353L7.81042 16.8916V8.55796L7.98724 8.50624C8.30171 8.43665 9.18466 8.26364 10.8753 8.26364C14.3614 8.26364 16.4422 9.83294 16.4422 12.4624C16.4422 15.3219 14.101 17.1042 10.3342 17.1042ZM38.3673 3.9082C29.8629 3.9082 23.9161 9.61012 23.9161 17.7806C23.9161 25.8333 29.5305 31.2511 37.8741 31.2511C46.734 31.2511 52.4564 25.7755 52.4564 17.2973C52.4583 10.6303 48.1025 3.9082 38.3673 3.9082ZM38.2342 26.8915C33.6236 26.8915 30.6481 23.2658 30.6481 17.6571C30.6481 12.0388 33.6753 8.26364 38.1901 8.26364C42.6276 8.26364 45.7278 12.0624 45.7278 17.4981C45.7278 23.2057 42.7885 26.8915 38.2338 26.8915H38.2342ZM71.5593 19.4789L71.5136 19.4173V19.0454L71.6787 18.9876C73.8244 18.2993 76.3284 16.1775 76.3284 12.4883C76.3284 9.88087 75.2523 7.36471 73.6552 6.21939C71.6247 4.78317 68.6557 4.14472 64.0295 4.14472C60.7973 4.14472 57.5895 4.3417 55.1772 4.67594V30.8055H61.462V20.2127H65.2387C65.2387 20.2127 73.194 30.6146 73.3392 30.8055H80.2625C78.8347 28.9677 72.697 21.0581 71.5593 19.4789ZM64.3896 16.2946H61.4639V8.42068L61.6609 8.38723C62.4959 8.25185 63.55 8.18417 64.801 8.18417C68.1841 8.2279 70.0497 9.64815 70.0497 12.1818C70.0478 14.7234 67.886 16.2946 64.3896 16.2946ZM99.9342 4.34588V8.98156H91.6926V30.8097H85.3184V8.98156H77.2114V4.34588H99.9342ZM113.564 3.9082C105.062 3.9082 99.1148 9.61012 99.1148 17.7806C99.1148 25.8333 104.722 31.2511 113.077 31.2511C121.933 31.2511 127.657 25.7755 127.657 17.2973C127.653 10.6303 123.302 3.9082 113.564 3.9082ZM113.431 26.8915C108.825 26.8915 105.851 23.2658 105.851 17.6571C105.851 12.0388 108.876 8.26364 113.391 8.26364C117.832 8.26364 120.933 12.0624 120.933 17.4981C120.929 23.2057 117.989 26.8915 113.431 26.8915Z" fill="#1D1D1B"/>
</g>
</g>
</svg>
